<?xml version="1.0" encoding="UTF-8" standalone="no"?>
<!-- Created with Inkscape (http://www.inkscape.org/) -->

<svg
   xmlns:dc="http://purl.org/dc/elements/1.1/"
   xmlns:cc="http://creativecommons.org/ns#"
   xmlns:rdf="http://www.w3.org/1999/02/22-rdf-syntax-ns#"
   xmlns:svg="http://www.w3.org/2000/svg"
   xmlns="http://www.w3.org/2000/svg"
   xmlns:sodipodi="http://sodipodi.sourceforge.net/DTD/sodipodi-0.dtd"
   xmlns:inkscape="http://www.inkscape.org/namespaces/inkscape"
   id="svg2985"
   version="1.1"
   inkscape:version="0.48.4 r9939"
   width="743.75"
   height="1052.5"
   xml:space="preserve"
   sodipodi:docname="logo.ps"><metadata
     id="metadata2991"><rdf:RDF><cc:Work
         rdf:about=""><dc:format>image/svg+xml</dc:format><dc:type
           rdf:resource="http://purl.org/dc/dcmitype/StillImage" /><dc:title></dc:title></cc:Work></rdf:RDF></metadata><defs
     id="defs2989"><clipPath
       clipPathUnits="userSpaceOnUse"
       id="clipPath3001"><path
         d="m 0,0 3540,0 0,4070 L 0,4070 0,0 z"
         id="path3003" /></clipPath></defs><sodipodi:namedview
     pagecolor="#ffffff"
     bordercolor="#666666"
     borderopacity="1"
     objecttolerance="10"
     gridtolerance="10"
     guidetolerance="10"
     inkscape:pageopacity="0"
     inkscape:pageshadow="2"
     inkscape:window-width="1920"
     inkscape:window-height="1025"
     id="namedview2987"
     showgrid="false"
     inkscape:zoom="1.289924"
     inkscape:cx="194.51969"
     inkscape:cy="298.23411"
     inkscape:window-x="0"
     inkscape:window-y="27"
     inkscape:window-maximized="1"
     inkscape:current-layer="g2993" /><g
     id="g2993"
     inkscape:groupmode="layer"
     inkscape:label="ink_ext_XXXXXX"
     transform="matrix(1.25,0,0,-1.25,0,1052.5)"><path
       style="fill:#000000;fill-opacity:1;fill-rule:nonzero;stroke:none"
       d="m 218.8105,229.64593 -5.202,-1.8 -4.344,-5.186 1.822,-18.876 1.662,-1.844 3.322,-0.656 11.722,0.308 -1.188,10.738 3.55,0.984 0.712,8.638 -5.33,2.554 -1.4,3.328 -5.326,1.812 z m 0.108,-1.096 c 0.0503,0.002 0.10144,0 0.152,0 1.4188,0 2.62792,-0.45608 3.582,-1.292 0.93216,-0.8172 1.61376,-1.9964 2.04,-3.448 1.39656,-0.49 2.5824,-1.14752 3.428,-1.96 0.75224,-0.10216 1.36776,-0.5724 1.484,-1.254 0.0578,-0.33904 -0.0179,-0.67168 -0.192,-0.962 0.0838,-0.4272 0.0883,-0.8748 0.004,-1.336 -0.0766,-0.41688 -0.22656,-0.80576 -0.426,-1.172 0.4144,-0.49808 0.52944,-1.13128 0.396,-1.676 -0.14408,-0.58688 -0.5744,-1.08824 -1.19,-1.176 -0.39504,-0.0566 -0.71344,0.0586 -0.946,0.254 -0.0987,0.0831 -0.18272,0.178 -0.258,0.278 -0.0728,0.0806 -0.13856,0.16568 -0.202,0.252 -0.59968,-0.31784 -1.27648,-0.56344 -2.008,-0.73 0.79968,-2.22688 0.85624,-4.94752 0.13,-7.34 0.76,-0.3316 1.484,-1.09959 1.484,-2.038 0,-0.56062 -0.22856,-0.93903 -0.582,-1.12 -0.29312,-0.15031 -0.6464,-0.17665 -1.022,-0.186 0.009,-0.0662 0.0254,-0.13077 0.026,-0.198 0.005,-0.29934 -0.11656,-0.62246 -0.4,-0.83 -0.27,-0.19965 -0.62568,-0.28847 -1.086,-0.306 l -0.002,0 c -0.0681,-0.002 -0.13432,-0.002 -0.2,-0.002 l -0.004,0 c -1.00344,0 -1.7288,0.28416 -2.2,0.702 -0.47064,0.41753 -0.67368,0.94656 -0.674,1.4 0,0.0875 0.0138,0.17291 0.03,0.256 -0.61968,0.0397 -1.238,0.0342 -1.848,-0.012 0.0162,-0.0859 0.03,-0.17447 0.03,-0.266 0,-0.44375 -0.18576,-0.96872 -0.642,-1.384 -0.45656,-0.41568 -1.16728,-0.696 -2.156,-0.696 l -0.004,0 c -0.003,0 -0.004,-6.4e-4 -0.01,0 -0.0622,0 -0.12504,-1.6e-4 -0.19,0.002 -0.47248,0.0178 -0.83792,0.10984 -1.112,0.318 -0.28624,0.21497 -0.40432,0.54594 -0.4,0.85 6.4e-4,0.0571 0.0134,0.1121 0.02,0.168 -0.36872,0.0113 -0.71878,0.0401 -1.006,0.192 -0.34653,0.18312 -0.568,0.55856 -0.568,1.112 0,0.93784 0.72232,1.70609 1.482,2.038 -0.0972,0.3056 -0.18536,0.61696 -0.256,0.936 -1.07505,1.21032 -1.98359,2.86032 -2.488,4.24 -0.25431,0.69624 -0.40898,1.31864 -0.418,1.804 -0.005,0.24248 0.0234,0.45432 0.118,0.63 0.0947,0.17528 0.282,0.3004 0.492,0.312 0.154,0.008 0.30153,-0.0258 0.42,-0.104 0.11809,-0.0781 0.20359,-0.19128 0.272,-0.316 0.13718,-0.24936 0.22015,-0.56272 0.328,-0.934 0.18312,-0.63088 0.44782,-1.4216 1.026,-2.226 0.0734,1.17064 0.31112,2.314 0.722,3.344 -1.46033,0.24528 -2.50494,0.93952 -3.08,1.892 -0.0387,0.0644 -0.0737,0.13144 -0.108,0.198 -0.0178,0.0341 -0.0354,0.0674 -0.052,0.102 -0.0343,0.0722 -0.0663,0.14568 -0.096,0.22 -0.0294,0.0744 -0.0577,0.14976 -0.082,0.226 -0.0126,0.0388 -0.0231,0.0769 -0.034,0.116 -0.01,0.0337 -0.0192,0.0676 -0.028,0.102 -8e-4,0.005 -0.002,0.009 -0.004,0.014 -0.003,0.0131 -0.006,0.0266 -0.01,0.04 -0.006,0.0259 -0.0124,0.0521 -0.018,0.078 -0.009,0.0416 -0.0165,0.0841 -0.024,0.126 -0.007,0.0381 -0.0144,0.0756 -0.02,0.114 -8e-4,0.006 -0.002,0.0106 -0.002,0.016 -0.006,0.0346 -0.01,0.071 -0.014,0.106 -0.005,0.0406 -0.008,0.0808 -0.012,0.122 -0.003,0.0413 -0.006,0.0824 -0.008,0.124 -0.002,0.041 -0.005,0.0824 -0.006,0.124 -6.3e-4,0.0206 -0.002,0.041 -0.002,0.062 l 0,0.032 c 0,0.0278 0.002,0.0562 0.002,0.084 2.5e-4,0.0247 8e-4,0.0494 0.002,0.074 0.003,0.0847 0.008,0.16872 0.016,0.254 0.003,0.0366 0.006,0.0731 0.01,0.11 3.4e-4,0.003 0.002,0.005 0.002,0.008 0.002,0.0118 0.002,0.0238 0.004,0.036 0.005,0.0341 0.009,0.0679 0.014,0.102 0.006,0.0444 0.0138,0.0896 0.022,0.134 0.007,0.0418 0.0156,0.0842 0.024,0.126 0.009,0.0431 0.018,0.0869 0.028,0.13 0.0203,0.0872 0.0447,0.17448 0.07,0.262 0.0253,0.0871 0.052,0.17448 0.082,0.262 0.009,0.0247 0.0169,0.0493 0.026,0.074 0.006,0.0184 0.0151,0.0373 0.022,0.056 0.011,0.029 0.0208,0.0589 0.032,0.088 0.006,0.0146 0.0121,0.0294 0.018,0.044 0.0178,0.0444 0.037,0.0876 0.056,0.132 0.0362,0.0838 0.0734,0.16856 0.114,0.252 0.002,0.003 0.005,0.006 0.006,0.01 0.0213,0.0438 0.0435,0.0866 0.066,0.13 3.2e-4,6.4e-4 0,0.002 0,0.002 0.11063,0.2128 0.21415,0.42096 0.312,0.626 0.002,0.006 0.005,0.0121 0.008,0.018 0.0947,0.19912 0.18359,0.39336 0.268,0.584 0.005,0.0113 0.009,0.0227 0.014,0.034 0.0443,0.10064 0.0881,0.19952 0.13,0.298 0.12559,0.29432 0.23991,0.57808 0.348,0.85 0.13344,0.33528 0.25563,0.64816 0.374,0.946 0.0106,0.0262 0.0197,0.0501 0.03,0.076 0.0522,0.13 0.10272,0.25384 0.154,0.376 0.0303,0.0725 0.0618,0.14432 0.092,0.214 0.0306,0.07 0.061,0.13912 0.092,0.206 0.0134,0.029 0.0266,0.0595 0.04,0.088 0.0478,0.10088 0.0963,0.19792 0.146,0.292 0.002,0.003 0.004,0.006 0.006,0.01 0.0278,0.0525 0.0553,0.104 0.084,0.154 0.006,0.009 0.0107,0.0186 0.016,0.028 0.0641,0.11056 0.13,0.2156 0.2,0.314 0.003,0.004 0.007,0.006 0.01,0.01 0.0334,0.0469 0.0666,0.0919 0.102,0.136 0.002,0.003 0.006,0.006 0.008,0.01 0.0569,0.0702 0.11576,0.13712 0.178,0.2 0.0406,0.0409 0.0829,0.0805 0.126,0.118 0.008,0.007 0.0158,0.0148 0.024,0.022 0.1,0.084 0.20736,0.15688 0.322,0.22 0.2488,0.13656 0.53256,0.22464 0.856,0.254 0.92504,0.95376 2.31176,1.57048 3.868,1.608 z m 0.006,-0.4 c -1.30064,-0.0322 -2.46744,-0.49664 -3.304,-1.216 0.45192,-0.0582 0.81536,-0.24648 1.096,-0.534 0.34216,-0.35096 0.56368,-0.83288 0.75,-1.396 0.37216,-1.12656 0.60096,-2.60168 1.176,-4.126 0.8884,-2.35472 0.668,-3.9524 -0.112,-4.948 -0.77968,-0.9956 -2.06744,-1.354 -3.22,-1.354 -0.284,0 -0.55736,0.0138 -0.818,0.042 -0.47752,-1.16 -0.732,-2.49768 -0.756,-3.848 l -0.006,-0.516 -0.344,0.39 c -0.88503,1.01344 -1.20682,2.05088 -1.424,2.8 -0.10882,0.37432 -0.19446,0.6768 -0.292,0.854 -0.0487,0.0884 -0.0984,0.14168 -0.144,0.172 -0.046,0.0303 -0.0953,0.0447 -0.18,0.04 -0.09,-0.005 -0.11754,-0.023 -0.16,-0.102 -0.0429,-0.0791 -0.0741,-0.22952 -0.07,-0.432 0.007,-0.40464 0.14872,-1.00472 0.394,-1.676 0.49098,-1.3428 1.39913,-2.98536 2.44,-4.146 l 0.036,-0.04 0.01,-0.05 c 0.0834,-0.38624 0.18688,-0.76424 0.31,-1.128 l 0.066,-0.188 -0.188,-0.064 c -0.6672,-0.23097 -1.388,-0.95744 -1.388,-1.734 0,-0.46216 0.12848,-0.63969 0.356,-0.76 0.2272,-0.12031 0.59928,-0.15168 1.044,-0.156 l 0.054,0 c 0.0744,0.22838 0.17936,0.45648 0.284,0.678 0.19248,0.39754 0.3904,0.78032 0.426,0.996 0.0363,0.19466 0.0726,0.68744 0.102,1.294 0.03,0.60912 0.054,1.3416 0.074,2.046 0.0397,1.40808 0.06,1.02704 0.06,1.618 0,0.59128 0.2,1.086 0.2,1.086 0,0 0.2,-0.40296 0.2,-1.092 0,-0.50528 -0.0457,-1.83632 -0.136,-3.676 -0.0306,-0.61592 -0.0642,-1.10262 -0.108,-1.348 -0.0631,-0.32774 -0.26944,-0.7019 -0.456,-1.096 -0.18912,-0.38903 -0.35144,-0.79087 -0.348,-1.064 0.004,-0.17031 0.0434,-0.27374 0.164,-0.37 0.1228,-0.0962 0.36376,-0.18025 0.77,-0.194 0.061,-0.002 0.1212,-0.004 0.18,-0.004 0.8828,5.6e-4 1.42848,0.24281 1.756,0.54 0.32752,0.29688 0.446,0.66184 0.446,0.94 0,0.0728 -0.008,0.14128 -0.022,0.196 -0.0478,0.19719 -0.0853,0.60744 -0.124,1.154 -0.0378,0.54247 -0.072,1.20344 -0.102,1.844 -0.06,1.28192 -0.044,0.98528 -0.044,1.504 0,0.51912 0.144,0.986 0.144,0.986 0,0 0.258,-0.55 0.258,-1.12 0,-0.56968 -0.0366,0.45256 0,-0.424 0.0366,-0.87656 0.0878,-1.95574 0.144,-2.762 0.019,-0.28215 0.0418,-0.5319 0.062,-0.726 l 0.004,0 c 0.77224,0.071 1.55824,0.0798 2.346,0.016 l 0.004,0 c 0.02,0.19163 0.0416,0.43657 0.06,0.71 0.0372,0.53754 0.072,1.19696 0.102,1.836 0.0597,1.27848 0.1,1.07568 0.1,1.546 0,0.47 0.244,0.93 0.244,0.93 0,0 0.156,-0.42512 0.156,-0.942 0,-0.51688 -0.0912,-1.77144 -0.204,-3.398 -0.0388,-0.54657 -0.0738,-0.95815 -0.122,-1.156 -0.0118,-0.0481 -0.02,-0.10528 -0.02,-0.17 -2.4e-4,-0.27215 0.12936,-0.64728 0.474,-0.952 0.34472,-0.30472 0.91168,-0.55144 1.806,-0.552 0.0588,0 0.11704,0.002 0.178,0.004 0.39528,0.0132 0.63264,0.0928 0.752,0.184 0.11688,0.0916 0.15424,0.18544 0.158,0.346 0.004,0.26913 -0.16952,0.67841 -0.372,1.074 -0.20032,0.40194 -0.42064,0.78379 -0.486,1.12 -0.0437,0.24538 -0.0774,0.73208 -0.108,1.348 -0.03,0.61344 -0.056,1.34608 -0.076,2.052 -0.0403,1.4116 -0.06,1.566 -0.06,2.066 0,0.50032 0.076,1.004 0.076,1.004 0,0 0.324,-0.57024 0.324,-1.004 0,-0.43344 0.0115,-0.0783 0.034,-1.038 0.0229,-0.95968 0.0554,-2.14824 0.1,-3.062 0.0294,-0.60656 0.0658,-1.09934 0.102,-1.294 0.0353,-0.216 0.24576,-0.60821 0.452,-1.012 0.10784,-0.21718 0.21496,-0.43922 0.294,-0.662 l 0.064,0 c 0.45376,0.003 0.83592,0.0323 1.07,0.152 0.23376,0.12 0.364,0.29584 0.364,0.764 0,0.77656 -0.7208,1.50304 -1.388,1.734 l -0.184,0.062 0.06,0.188 c 0.76688,2.38152 0.70952,5.16224 -0.112,7.366 l -0.408,0.264 0.482,0.094 c 0.3328,0.0659 0.65448,0.14928 0.962,0.248 -0.75248,-0.0453 -1.53704,0.0545 -2.272,0.282 -0.82032,0.25368 -1.09368,0.42568 -1.064,0.636 0.0553,0.39376 0.94992,0.40088 1.368,0.454 2.9688,0.37592 4.836,1.07312 5.636,2.62 5.6e-4,0.002 0.002,0.003 0.002,0.004 0.002,0.10816 -0.002,0.21504 -0.01,0.32 -0.2928,-0.26248 -0.68328,-0.45304 -1.122,-0.528 -0.13064,-0.0222 -0.26048,-0.0334 -0.388,-0.034 -0.89248,-0.005 -1.6712,0.50112 -1.804,1.278 -0.1512,0.88744 0.612,1.72152 1.656,1.9 0.0354,0.006 0.069,0.0116 0.104,0.016 -0.7828,0.64776 -1.82696,1.19784 -3.046,1.616 l -0.1,0.034 -0.026,0.102 c -0.0503,0.17784 -0.10384,0.34952 -0.162,0.518 -0.11656,-0.13248 -0.30024,-0.216 -0.568,-0.216 -0.51312,0 -0.93,0.30336 -0.93,0.678 0,0.37472 0.41688,0.678 0.93,0.678 0.0278,0 0.0538,-0.002 0.08,-0.004 -0.35688,0.67968 -0.79304,1.25016 -1.304,1.698 -0.8828,0.77344 -1.98624,1.192 -3.32,1.192 -0.0484,0 -0.0958,0.002 -0.144,0 z m -3.614,-1.596 c -0.0322,0 -0.0647,-7.2e-4 -0.096,-0.002 l -0.03,-0.002 -0.036,-0.002 c -0.059,-0.004 -0.11504,-0.008 -0.17,-0.016 -0.01,-8e-4 -0.0203,-0.003 -0.03,-0.004 -0.0172,-0.003 -0.0354,-0.007 -0.052,-0.01 -0.0266,-0.005 -0.0524,-0.008 -0.078,-0.014 -0.051,-0.0113 -0.10048,-0.025 -0.148,-0.04 -0.0102,-0.003 -0.0217,-0.006 -0.032,-0.01 -0.0128,-0.005 -0.0251,-0.009 -0.038,-0.014 -2.4e-4,-3.2e-4 -0.002,3.2e-4 -0.002,0 -0.0453,-0.0169 -0.0875,-0.0357 -0.13,-0.056 -0.0431,-0.0206 -0.0857,-0.0436 -0.126,-0.068 -0.0122,-0.007 -0.0242,-0.0145 -0.036,-0.022 -0.008,-0.006 -0.0162,-0.0107 -0.024,-0.016 -0.0347,-0.0232 -0.0669,-0.0481 -0.1,-0.074 -0.006,-0.005 -0.0138,-0.009 -0.02,-0.014 -0.0357,-0.0287 -0.0699,-0.0602 -0.104,-0.092 -0.0278,-0.0263 -0.0551,-0.0535 -0.082,-0.082 -0.0157,-0.0162 -0.0306,-0.0328 -0.046,-0.05 -0.006,-0.007 -0.0121,-0.0131 -0.018,-0.02 -0.0206,-0.0238 -0.0397,-0.0486 -0.06,-0.074 -0.0331,-0.0415 -0.0658,-0.0843 -0.098,-0.13 -0.0287,-0.0406 -0.0578,-0.0839 -0.086,-0.128 -0.005,-0.008 -0.0114,-0.0142 -0.016,-0.022 -0.0297,-0.0466 -0.0573,-0.0957 -0.086,-0.146 -0.0254,-0.0434 -0.0513,-0.0877 -0.076,-0.134 -0.006,-0.01 -0.0103,-0.0197 -0.016,-0.03 -0.0162,-0.0309 -0.0318,-0.0618 -0.048,-0.094 -0.0278,-0.055 -0.0565,-0.11224 -0.084,-0.17 -0.002,-0.006 -0.005,-0.0121 -0.008,-0.018 -0.0128,-0.0272 -0.0252,-0.0542 -0.038,-0.082 -0.0298,-0.0644 -0.0583,-0.13016 -0.088,-0.198 -0.0228,-0.0525 -0.0469,-0.1056 -0.07,-0.16 -0.0306,-0.0722 -0.0614,-0.1504 -0.092,-0.226 -0.0354,-0.0859 -0.0721,-0.17368 -0.108,-0.264 -6.4e-4,-0.002 -0.002,-0.002 -0.002,-0.004 -0.11719,-0.29464 -0.23728,-0.60616 -0.372,-0.944 -0.0353,-0.0884 -0.0728,-0.1784 -0.11,-0.27 -0.0397,-0.0981 -0.0778,-0.19472 -0.12,-0.296 -0.006,-0.0156 -0.0114,-0.0304 -0.018,-0.046 -0.0344,-0.0822 -0.0697,-0.1636 -0.106,-0.248 -0.006,-0.0131 -0.0101,-0.0266 -0.016,-0.04 -0.0372,-0.0869 -0.0766,-0.17528 -0.116,-0.264 -0.005,-0.011 -0.009,-0.021 -0.014,-0.032 -0.0406,-0.0918 -0.0808,-0.18432 -0.124,-0.278 -0.004,-0.008 -0.008,-0.0159 -0.012,-0.024 -0.0447,-0.0969 -0.0908,-0.19496 -0.138,-0.294 -0.002,-0.006 -0.006,-0.0107 -0.008,-0.016 -0.0488,-0.10224 -0.0985,-0.20392 -0.15,-0.308 -0.0544,-0.10936 -0.11015,-0.22048 -0.168,-0.332 -0.0422,-0.0816 -0.0825,-0.16272 -0.12,-0.244 -0.002,-0.006 -0.003,-0.011 -0.006,-0.016 -0.005,-0.011 -0.0114,-0.021 -0.016,-0.032 -0.0113,-0.0243 -0.0214,-0.0497 -0.032,-0.074 -0.005,-0.0113 -0.009,-0.023 -0.014,-0.034 -0.0191,-0.0444 -0.0368,-0.0876 -0.054,-0.132 -0.0138,-0.0346 -0.0272,-0.0694 -0.04,-0.104 -0.009,-0.0241 -0.0176,-0.0479 -0.026,-0.072 -0.005,-0.0125 -0.007,-0.0255 -0.012,-0.038 -0.006,-0.0169 -0.0127,-0.0334 -0.018,-0.05 -0.006,-0.0194 -0.0121,-0.039 -0.018,-0.058 -0.01,-0.0313 -0.0206,-0.0627 -0.03,-0.094 -0.006,-0.0184 -0.0107,-0.0376 -0.016,-0.056 -0.0272,-0.0959 -0.0514,-0.19136 -0.072,-0.286 -0.002,-0.01 -0.004,-0.02 -0.006,-0.03 -0.006,-0.0288 -0.0127,-0.0576 -0.018,-0.086 -0.003,-0.0147 -0.006,-0.0297 -0.008,-0.044 -3.1e-4,-0.002 3.1e-4,-0.002 0,-0.004 -0.003,-0.0162 -0.005,-0.0317 -0.008,-0.048 -0.004,-0.0234 -0.009,-0.0466 -0.012,-0.07 -3.1e-4,-0.002 3.1e-4,-0.004 0,-0.006 -0.006,-0.0394 -0.0114,-0.079 -0.016,-0.118 -0.002,-0.0154 -0.005,-0.0306 -0.006,-0.046 -0.002,-0.0212 -0.004,-0.0428 -0.006,-0.064 -5.6e-4,-0.009 -8e-4,-0.019 -0.002,-0.028 -0.006,-0.0684 -0.01,-0.13648 -0.012,-0.204 -0.003,-0.0766 -0.004,-0.15272 -0.002,-0.228 6.6e-4,-0.0257 7.1e-4,-0.0503 0.002,-0.076 0.002,-0.0371 0.006,-0.0748 0.008,-0.112 0.002,-0.0259 0.003,-0.052 0.006,-0.078 0.002,-0.014 0.002,-0.0279 0.004,-0.042 8e-4,-0.009 0.003,-0.0186 0.004,-0.028 0.004,-0.0302 0.008,-0.0617 0.012,-0.092 8e-4,-0.006 8e-4,-0.0107 0.002,-0.016 0.01,-0.0657 0.0226,-0.12992 0.036,-0.194 0.002,-0.007 0.002,-0.0149 0.004,-0.022 0.002,-0.011 0.006,-0.0214 0.008,-0.032 0.006,-0.0246 0.01,-0.0496 0.016,-0.074 8e-4,-0.004 0.003,-0.008 0.004,-0.012 0.009,-0.0362 0.0177,-0.072 0.028,-0.108 0.002,-0.006 0.005,-0.0103 0.006,-0.016 0.007,-0.0238 0.0142,-0.0486 0.022,-0.072 0.003,-0.009 0.007,-0.0186 0.01,-0.028 0.0109,-0.0331 0.0222,-0.0655 0.034,-0.098 0.008,-0.021 0.0159,-0.0414 0.024,-0.062 0.002,-0.006 0.004,-0.0107 0.006,-0.016 0.0113,-0.0275 0.0225,-0.0549 0.034,-0.082 0.002,-0.005 0.004,-0.01 0.006,-0.014 0.008,-0.0175 0.0162,-0.0345 0.024,-0.052 0.007,-0.0146 0.0131,-0.0294 0.02,-0.044 0.005,-0.009 0.01,-0.0172 0.014,-0.026 0.006,-0.0115 0.0101,-0.0244 0.016,-0.036 0.006,-0.0112 0.0121,-0.0224 0.018,-0.034 0.0125,-0.024 0.0249,-0.0482 0.038,-0.072 0.004,-0.007 0.008,-0.0149 0.012,-0.022 0.0141,-0.0254 0.029,-0.0494 0.044,-0.074 0.0131,-0.0222 0.0259,-0.0445 0.04,-0.066 0.007,-0.0113 0.0148,-0.0228 0.022,-0.034 0.002,-0.002 0.004,-0.005 0.006,-0.008 0.0394,-0.0597 0.0823,-0.11848 0.126,-0.176 0.0113,-0.0147 0.0225,-0.0293 0.034,-0.044 0.011,-0.0134 0.0207,-0.0266 0.032,-0.04 0.004,-0.005 0.008,-0.009 0.012,-0.014 0.0244,-0.0294 0.0504,-0.0593 0.076,-0.088 0.002,-0.002 0.002,-0.002 0.004,-0.004 0.0178,-0.02 0.0355,-0.0403 0.054,-0.06 0.008,-0.009 0.0176,-0.0173 0.026,-0.026 0.0222,-0.0231 0.0432,-0.0455 0.066,-0.068 0.0128,-0.0125 0.0249,-0.0258 0.038,-0.038 0.015,-0.0144 0.0307,-0.0279 0.046,-0.042 0.0422,-0.0384 0.0873,-0.0751 0.132,-0.112 0.0241,-0.0197 0.0473,-0.039 0.072,-0.058 0.008,-0.006 0.0155,-0.0138 0.024,-0.02 0.006,-0.005 0.0134,-0.009 0.02,-0.014 0.0287,-0.0215 0.0583,-0.0431 0.088,-0.064 0.0303,-0.0216 0.0604,-0.0434 0.092,-0.064 0.009,-0.006 0.0186,-0.0118 0.028,-0.018 0.025,-0.0162 0.0507,-0.0324 0.076,-0.048 0.0347,-0.0213 0.07,-0.0417 0.106,-0.062 0.0184,-0.0106 0.0372,-0.0217 0.056,-0.032 0.0172,-0.009 0.0348,-0.0186 0.052,-0.028 0.006,-0.003 0.0107,-0.006 0.016,-0.008 0.0316,-0.0166 0.0638,-0.0324 0.096,-0.048 0.0374,-0.0184 0.0756,-0.0365 0.114,-0.054 0.0388,-0.0175 0.076,-0.0334 0.116,-0.05 0.2384,-0.0994 0.49864,-0.18336 0.778,-0.248 0.18624,-0.0434 0.38136,-0.0778 0.586,-0.104 l 0.124,-0.016 c 0.25192,-0.0275 0.5176,-0.042 0.796,-0.042 1.06848,0 2.2284,0.33944 2.904,1.202 0.67568,0.86248 0.91632,2.28088 0.056,4.56 -0.59216,1.57056 -0.82968,3.06712 -1.184,4.14 -0.1772,0.53624 -0.38224,0.96168 -0.656,1.242 -0.27344,0.28032 -0.60744,0.434 -1.12,0.434 z m 7.92,-1.58 c -0.13872,0 -0.252,-0.098 -0.252,-0.218 0,-0.12 0.11328,-0.218 0.252,-0.218 0.13912,0 0.252,0.098 0.252,0.218 0,0.12 -0.11288,0.218 -0.252,0.218 z m -3.894,-0.234 c 0.28808,0 0.55344,-0.0771 0.754,-0.214 0.20096,-0.13688 0.344,-0.34232 0.344,-0.582 0,-0.23968 -0.14304,-0.44944 -0.344,-0.586 -0.20056,-0.13688 -0.46592,-0.212 -0.754,-0.212 -0.28848,0 -0.55104,0.0751 -0.752,0.212 -0.20088,0.13656 -0.346,0.34632 -0.346,0.586 0,0.23968 0.14512,0.44512 0.346,0.582 0.20096,0.13688 0.46352,0.214 0.752,0.214 z m -0.356,-0.276 c -0.16344,0 -0.298,-0.10608 -0.298,-0.238 0,-0.13184 0.13456,-0.238 0.298,-0.238 0.16376,0 0.296,0.10616 0.296,0.238 0,0.13192 -0.13224,0.238 -0.296,0.238 z m 9.152,-2.936 c -0.2088,-0.0298 -0.4548,-0.0945 -0.712,-0.192 -0.64024,-0.2428 -1.09904,-0.60024 -1.024,-0.798 0.075,-0.19816 0.65536,-0.1608 1.296,0.082 0.5456,0.20688 0.95624,0.49624 1.02,0.7 -0.16904,0.1 -0.36472,0.172 -0.58,0.208 z m 0.238,-4.372 c -0.13196,-0.12615 -0.36485,-0.33441 -0.75,-0.548 0.11822,-0.0718 0.82279,-0.5416 0.918,-1.602 0.52026,0.473 0.58894,1.53587 -0.168,2.15 z m -0.76,-0.554 c -0.0257,-0.0142 -0.051,-0.0278 -0.078,-0.042 -0.3472,-0.18184 -0.78416,-0.31256 -1.142,-0.406 0.20912,-0.16344 0.3732,-0.37392 0.52,-0.578 l 0.038,0.022 0.104,-0.164 c 0.075,-0.12128 0.14768,-0.23752 0.222,-0.34 0.005,-0.006 0.009,-0.0123 0.014,-0.018 0.0728,-0.0806 0.1476,-0.14936 0.226,-0.2 0.0785,-0.0506 0.16104,-0.0885 0.256,-0.106 0.0954,-0.0175 0.20224,-0.0129 0.336,0.014 0.16063,0.0322 0.30301,0.1086 0.422,0.214 -0.0362,0.10888 -0.23699,0.69764 -0.41,0.928 -0.18467,0.24603 -0.49019,0.6523 -0.508,0.676 z"
       id="path3005"
       inkscape:connector-curvature="0" /><path
       inkscape:connector-curvature="0"
       style="fill:#231f20;fill-opacity:1;fill-rule:nonzero;stroke:none"
       d="m 244.13228,229.45863 -0.298,-0.008 -0.006,0 -0.002,0 -0.294,-0.022 -0.006,0 -0.004,0 -0.288,-0.038 -0.006,0 -0.004,0 -0.28,-0.05 -0.004,0 -0.006,-0.002 -0.278,-0.06 -0.004,-0.002 -0.006,0 -0.266,-0.076 -0.006,-0.002 -0.006,0 -0.262,-0.088 -0.004,-0.002 -0.006,0 -0.254,-0.1 -0.006,-0.002 -0.002,0 -0.248,-0.11 -0.004,-0.002 -0.006,-0.004 -0.236,-0.122 -0.006,-0.002 -0.006,-0.002 -0.226,-0.13 -0.006,-0.004 -0.004,-0.004 -0.22,-0.14 -0.006,-0.002 -0.002,-0.006 -0.21,-0.15 -0.006,-0.004 -0.004,-0.004 -0.198,-0.16 -0.004,-0.004 -0.006,-0.002 -0.188,-0.17 -0.004,-0.006 -0.002,-0.002 -0.128,-0.13 -0.114,-0.01 -0.008,0 -0.008,-0.002 -0.176,-0.03 -0.006,-0.004 -0.01,-0.002 -0.164,-0.044 -0.008,-0.004 -0.008,-0.002 -0.156,-0.058 -0.01,-0.002 -0.006,-0.004 -0.146,-0.07 -0.008,-0.004 -0.01,-0.004 -0.134,-0.082 -0.008,-0.006 -0.008,-0.004 -0.13002,-0.094 -0.008,-0.004 -0.004,-0.008 -0.122,-0.104 -0.008,-0.006 -0.006,-0.004 -0.114,-0.118 -0.006,-0.006 -0.004,-0.004 -0.11,-0.13 -0.006,-0.006 -0.002,-0.004 -0.104,-0.138 -0.006,-0.004 -0.002,-0.006 -0.1,-0.15 -0.006,-0.004 -0.002,-0.004 -0.098,-0.162 0,-0.002 -0.002,-0.006 -0.094,-0.17 -0.004,-0.004 0,-0.002 -0.092,-0.184 -0.002,-0.002 0,-0.002 -0.092,-0.19 0,-0.002 0,-0.004 -0.094,-0.2 0,-0.002 0,-0.002 -0.088,-0.21 0,-0.002 -0.004,0 -0.09,-0.22 0,-0.004 -0.092,-0.23 -0.094,-0.236 -0.098,-0.248 -0.1,-0.256 -0.106,-0.262 0.004,0 -0.112,-0.27 -0.114,-0.278 -0.12,-0.282 0,-0.002 -0.126,-0.29 -0.002,-0.002 -0.132,-0.296 -0.002,-0.002 -0.14,-0.302 -0.004,-0.004 -0.148,-0.306 0,-0.004 -0.164,-0.316 0,-0.004 -0.124,-0.252 -0.004,-0.004 0,-0.006 -0.108,-0.252 -0.004,-0.006 0,-0.004 -0.094,-0.252 -0.002,-0.006 -0.004,-0.004 -0.08,-0.254 0,-0.004 -0.002,-0.006 -0.066,-0.25 -0.002,-0.004 0,-0.006 -0.052,-0.25 0,-0.004 0,-0.006 -0.038,-0.246 0,-0.006 -0.002,-0.008 -0.022,-0.24207 0,-0.008 0,-0.004 -0.008,-0.242 0,-0.006 0,-0.004 0.004,-0.24 0,-0.006 0.004,-0.004 0.02,-0.236 0,-0.008 0,-0.004 0.034,-0.23 0,-0.008 0.002,-0.004 0.052,-0.226 0,-0.008 0.002,-0.004 0.062,-0.22 0.002,-0.006 0.002,-0.006 0.076,-0.216 0.002,-0.004 0.002,-0.008 0.094,-0.208 0.002,-0.004 0.002,-0.008 0.106,-0.2 0.002,-0.006 0.006,-0.006 0.116,-0.194 0.006,-0.006 0.002,-0.006 0.132,-0.188 0.006,-0.004 0.004,-0.006 0.146,-0.176 0.004,-0.006 0.006,-0.004 0.16,-0.17 0.004,-0.006 0.006,-0.004 0.174,-0.164 0.006,-0.004 0.004,-0.002 0.188,-0.154 0.004,-0.004 0.006,-0.002 0.202,-0.144 0.006,-0.002 0.004,-0.004 0.216,-0.134 0.006,-0.002 0.006,-0.002 0.228,-0.12 0.006,-0.006 0.006,-0.002 0.242,-0.11 0.006,-0.002 0.004,0 0.258,-0.1 0.004,-0.002 0.006,0 0.27,-0.0881 0.004,-0.002 0.006,0 0.282,-0.076 0.006,0 0.004,-0.002 0.298,-0.06 0.004,0 0.006,-0.002 0.06,-0.01 -0.092,-0.232 0,-0.006 -0.002,-0.004 -0.164,-0.484 -0.002,-0.004 0,-0.006 -0.14,-0.494 0,-0.006 -0.002,-0.004 -0.116,-0.508 0,-0.004 0,-0.006 -0.092,-0.518 0,-0.004 -0.002,-0.006 -0.068,-0.524 0,-0.006 0,-0.002 -0.046,-0.532 -0.082,0.11 -0.002,0.004 -0.002,0.004 -0.11,0.17 -0.006,0.006 -0.104,0.176 -0.096,0.168 -0.002,0.004 -0.084,0.168 -0.004,0.004 -0.076,0.166 -0.004,0.004 -0.072,0.164 -0.002,0.004 -0.066,0.16597 -0.002,0 -0.058,0.156 -0.002,0.006 -0.054,0.154 0,0.004 -0.052,0.152 -0.048,0.15 0.002,0 -0.046,0.148 -0.042,0.142 -0.038,0.134 -0.04,0.134 -0.036,0.124 0,0.002 -0.038,0.118 0,0.002 -0.038,0.11 -0.002,0.004 0,0.002 -0.04,0.102 0,0.006 -0.002,0.002 -0.04,0.094 -0.004,0.006 -0.002,0.004 -0.042,0.086 -0.004,0.004 -0.004,0.008 -0.044,0.076 -0.006,0.01 -0.008,0.006 -0.046,0.066 -0.008,0.01 -0.01,0.01 -0.054,0.054 -0.008,0.01 -0.014,0.01 -0.058,0.046 -0.012,0.01 -0.014,0.008 -0.066,0.034 -0.014,0.01 -0.016,0.006 -0.072,0.024 -0.014,0.006 -0.018,0.002 -0.078,0.012 -0.016,0.002 -0.014,0 -0.086,0 -0.02,0 -0.016,-0.002 -0.106,-0.018 -0.024,-0.004 -0.026,-0.014 -0.088,-0.04 -0.026,-0.012 -0.02,-0.018 -0.074,-0.064 -0.02,-0.0158 -0.014,-0.022 -0.058,-0.084 -0.012,-0.018 -0.008,-0.018 -0.044,-0.104 -0.006,-0.016 -0.004,-0.014 -0.03,-0.126 -0.004,-0.012 -0.002,-0.012 -0.014,-0.144 -0.004,-0.006 0,-0.01 -0.002,-0.16 0,-0.008 0,-0.008 0.01,-0.174 0,-0.006 0,-0.008 0.024,-0.186 0,-0.006 0.002,-0.004 0.032,-0.204 0,-0.004 0.002,-0.006 0.046,-0.212 0,-0.004 0.002,-0.004 0.058,-0.226 0,-0.004 0,-0.002 0.07,-0.238 0,-0.002 0,-0.002 0.08,-0.246 0,-0.002 0,-0.002 0.09,-0.252 0,-0.004 0.002,-0.002 0.098,-0.26 0,-0.002 0.002,-0.002 0.108,-0.266 0,-0.002 0.002,0 0.114,-0.27 0.004,-0.002 0,-0.004 0.124,-0.272 0.004,-0.002 0,-0.002 0.132,-0.276 0.002,-0.002 0,-0.002 0.142,-0.276 0,-0.002 0.004,-0.002 0.146,-0.278 0.002,-0.002 0.156,-0.276 0.002,-0.002 0,-0.002 0.162,-0.272 0,-0.004 0.004,-0.002 0.168,-0.27 0.002,-0.002 0,-0.002 0.174,-0.266 0.004,-0.002 0,-0.004 0.18,-0.26 0.002,-0.002 0,-0.002 0.184,-0.252 0.002,-0.004 0.004,-0.002 0.19,-0.246 0,-0.004 0.002,0 0.196,-0.24 0.002,-0.002 0.166,-0.194 0.056,-0.24 0,-0.004 0,-0.004 0.076,-0.288 0.002,-0.002 0,-0.002 0.082,-0.288 0,-0.004 0.002,-0.002 0.034,-0.10211 -0.116,-0.056 -0.008,-0.002 -0.004,-0.004 -0.138,-0.076 -0.008,-0.002 -0.004,-0.004 -0.136,-0.086 -0.004,-0.006 -0.006,-0.002 -0.13,-0.098 -0.004,-0.002 -0.006,-0.004 -0.124,-0.10602 -0.006,-0.004 -0.004,-0.006 -0.12,-0.112 -0.006,-0.006 -0.004,-0.004 -0.112,-0.122 -0.004,-0.006 -0.004,-0.004 -0.104,-0.13 -0.004,-0.008 -0.004,-0.006 -0.094,-0.136 -0.004,-0.006 -0.006,-0.006 -0.08,-0.144 -0.004,-0.008 -0.004,-0.006 -0.068,-0.148 -0.006,-0.008 -0.002,-0.01 -0.058,-0.152 -0.002,-0.01 -0.004,-0.008 -0.042,-0.16 -0.002,-0.01 0,-0.01 -0.028,-0.162 0,-0.01 -0.002,-0.01 -0.008,-0.164 0,-0.012 0,-0.008 0.008,-0.18 0,-0.012 0.002,-0.008 0.024,-0.16 0.002,-0.014 0.002,-0.012 0.04,-0.14 0.002,-0.012 0.006,-0.014 0.052,-0.122 0.008,-0.014 0.008,-0.012 0.064,-0.106 0.01,-0.014 0.01,-0.012 0.08,-0.088 0.01,-0.014 0.012,-0.01 0.09,-0.076 0.01,-0.008 0.014,-0.008 0.102,-0.064 0.01,-0.006 0.012,-0.006 0.112,-0.052 0.01,-0.004 0.01,-0.004 0.124,-0.04 0.006,-0.002 0.01,-0.002 0.13,-0.032 0.008,0 0.008,-0.004 0.14,-0.022 0.004,0 0.006,0 0.148,-0.018 0.004,0 0.004,0 0.156,-0.008 0.002,-0.004 0.002,0 0.1,-0.002 -0.012,-0.14799 0,-0.01 0,-0.012 0.006,-0.096 0,-0.008 0,-0.012 0.014,-0.094 0,-0.01 0.004,-0.01 0.022,-0.092 0.004,-0.014 0.002,-0.008 0.036,-0.092 0.002,-0.012 0.006,-0.01 0.044,-0.086 0.006,-0.012 0.006,-0.008 0.058,-0.084 0.008,-0.01 0.008,-0.01 0.066,-0.076 0.012,-0.012 0.008,-0.006 0.08,-0.07 0.008,-0.008 0.01,-0.004 0.09,-0.06 0.008,-0.008 0.01,-0.006 0.1,-0.052 0.008,-0.006 0.01,-0.002 0.108,-0.044 0.006,-0.006 0.008,-0.002 0.12,-0.038 0.008,-0.002 0.006,0 0.132,-0.032 0.004,0 0.008,-0.002 0.14,-0.024 0.004,0 0.006,-0.002 0.152,-0.014 0.006,0 0.004,0 0.162,-0.012 0.006,0 0.002,0 0.194,-0.004 0.004,0 0.004,0 0.004,0 0.174,0.002 0.006,0 0.002,0 0.17,0.01 0.002,0 0.006,0 0.16,0.016 0.004,0 0.002,0.002 0.156,0.02 0.004,0 0.002,0 0.148,0.028 0.006,0 0.004,0 0.14,0.032 0.006,0 0.004,0 0.136,0.038 0.002,0 0.006,0.002 0.128,0.04 0.004,0 0.004,0.002 0.124,0.046 0.004,0.002 0.004,0 0.116,0.05 0.004,0.002 0.006,0.004 0.11,0.052 0.002,0.002 0.006,0.002 0.104,0.056 0.004,0.002 0.004,0.002 0.098,0.06 0.004,0.006 0.006,0.002 0.092,0.062 0.002,0.002 0.006,0.006 0.084,0.066 0.006,0.004 0.004,0.002 0.08,0.07 0.006,0.006 0.008,0.004 0.142,0.14599 0.008,0.008 0.006,0.008 0.12,0.154 0.008,0.006 0.006,0.012 0.1,0.154 0.004,0.01 0.006,0.01 0.08,0.16 0.004,0.008 0.002,0.01 0.06,0.16 0.006,0.01 0.002,0.01 0.04,0.16 0.002,0.008 0.004,0.008 0.024,0.156 0,0.01 0,0.012 0.01,0.148 0,0.012 0,0.01 -0.01,0.15 0,0.014 -0.002,0.012 -0.016,0.082 0.344,0.026 0.01,0 0.556,0.016 0.01,0 0.564,-0.01 0.006,0 0.35,-0.02 -0.014,-0.084 -0.002,-0.014 0,-0.012 -0.01,-0.136 0,-0.014 0,-0.01 0.01,-0.152 0,-0.01 0.002,-0.01 0.024,-0.158 0.004,-0.01 0.002,-0.01 0.044,-0.16 0.004,-0.01 0.004,-0.01 0.062,-0.162 0.006,-0.01 0.004,-0.008 0.084,-0.162 0.004,-0.01 0.008,-0.008 0.104,-0.16 0.006,-0.006 0.008,-0.008 0.124,-0.156 0.008,-0.008 0.008,-0.006 0.148,-0.148 0.006,-0.006 0.006,-0.004 0.084,-0.07 0.002,-0.002 0.006,-0.006 0.09,-0.066 0.002,-0.004 0.004,-0.002 0.096,-0.066 0.004,-0.002 0.004,-0.002 0.102,-0.06 0.002,-0.002 0.006,-0.002 0.108,-0.058 0.004,-0.002 0.002,-0.004 0.116,-0.054 0.002,0 0.006,-0.002 0.12,-0.052 0.004,-0.002 0.002,0 0.126,-0.046 0.004,0 0.006,-0.004 0.132,-0.04 0.002,-0.002 0.006,0 0.138,-0.038 0.004,0 0.006,-0.002 0.142,-0.03 0.004,-0.002 0.006,0 0.15,-0.026 0.004,-0.002 0.004,0 0.156,-0.02 0.006,0 0.002,0 0.166,-0.018 0.002,0 0.004,0 0.17,-0.008 0.006,-0.002 0.002,0 0.178,-0.002 0.002,0 0.002,0 0.004,0 0.002,0 0.194,0.004 0.004,0 0.004,0 0.16,0.008 0.002,0.004 0.006,0 0.148,0.014 0.006,0 0.006,0.002 0.134,0.024 0.008,0 0.008,0.002 0.124,0.026 0.008,0.004 0.008,0.002 0.114,0.034 0.008,0.004 0.01,0.002 0.106,0.046 0.01,0.002 0.006,0.004 0.098,0.05 0.008,0.006 0.01,0.004 0.088,0.06 0.01,0.006 0.006,0.008 0.08,0.064 0.01,0.01 0.01,0.01 0.066,0.072 0.01,0.01 0.008,0.01 0.054,0.08 0.008,0.01 0.004,0.014 0.046,0.084 0.004,0.01 0.006,0.01 0.034,0.09 0.004,0.01 0.002,0.01 0.024,0.092 0.004,0.01 0,0.01 0.012,0.094 0.002,0.008 0,0.012 0.002,0.092 0.004,0.012 -0.004,0.012 -0.014,0.17799 0.1,0.002 0.002,0 0.006,0 0.156,0.01 0.004,0 0.004,0 0.15,0.016 0.006,0.002 0.006,0 0.144,0.022 0.006,0 0.006,0.002 0.134,0.032 0.008,0.002 0.01,0.002 0.126,0.04 0.008,0.002 0.012,0.006 0.114,0.05 0.01,0.004 0.012,0.008 0.106,0.062 0.012,0.008 0.01,0.008 0.092,0.076 0.014,0.012 0.01,0.008 0.082,0.092 0.01,0.012 0.008,0.014 0.07,0.106 0.006,0.012 0.006,0.016 0.054,0.122 0.006,0.014 0.004,0.012 0.04,0.144 0.004,0.01 0.002,0.012 0.022,0.162 0.002,0.01 0,0.01 0.01,0.184 0,0.008 0,0.012 -0.01,0.164 0,0.01 -0.002,0.01 -0.026,0.16199 -0.002,0.01 -0.002,0.01 -0.042,0.16 -0.004,0.008 -0.002,0.01 -0.058,0.152 -0.002,0.01 -0.002,0.008 -0.07,0.148 -0.006,0.006 -0.002,0.008 -0.082,0.144 -0.006,0.006 -0.004,0.006 -0.092,0.136 -0.006,0.006 -0.002,0.008 -0.106,0.13 -0.002,0.004 -0.004,0.006 -0.114,0.122 -0.004,0.004 -0.006,0.006 -0.12,0.112 -0.002,0.006 -0.004,0.004 -0.128,0.106 -0.006,0.004 -0.004,0.002 -0.13,0.098 -0.006,0.002 -0.004,0.006 -0.136,0.086 -0.004,0.004 -0.008,0.002 -0.138,0.076 -0.004,0.004 -0.006,0.004 -0.11985,0.0539 0.086,0.29 0,0.006 0.002,0.002 0.118,0.472 0,0.006 0.002,0.002 0.098,0.478 0,0.004 0,0.006 0.08,0.482 0,0.004 0,0.004 0.06,0.486 0,0.004 0,0.004 0.04,0.488 0,0.004 0,0.006 0.02,0.488 0,0.004 0,0.006 0,0.486 0,0.006 0,0.002 -0.02,0.488 0,0.002 0,0.006 -0.038,0.482 0,0.004 -0.002,0.004 -0.058,0.476 0,0.006 0,0.004 -0.078,0.47 0,0.006 0,0.002 -0.096,0.466 0,0.004 0,0.002 -0.116,0.456 -0.002,0.002 0,0.006 -0.132,0.442 -0.004,0.004 -0.002,0.006 -0.09,0.26 0.072,0.014 0.004,0 0.002,0 0.322,0.084 0.006,0.002 0.002,0 0.314,0.092 0.004,0.002 0.004,0 0.306,0.106 0.002,0 0.004,0.002 0.296,0.112 0.004,0.004 0.004,0.002 0.286,0.122 0.004,0.002 0.004,0.004 0.276,0.132 0.004,0.002 0.002,0.002 0.1,0.054 0.016,-0.024 0.002,0 0,-0.002 0.058,-0.088 0.002,-0.002 0,-0.002 0.06,-0.086 0.002,-0.002 0.004,-0.002 0.062,-0.082 0.002,-0.004 0.002,-0.004 0.066,-0.076 0.002,-0.004 0.006,-0.006 0.066,-0.072 0.006,-0.004 0.004,-0.006 0.074,-0.064 0.006,-0.006 0.006,-0.004 0.078,-0.06 0.006,-0.006 0.008,-0.004 0.082,-0.054 0.01,-0.004 0.008,-0.006 0.09,-0.042 0.01,-0.004 0.01,-0.004 0.092,-0.032 0.014,-0.004 0.01,-0.004 0.102,-0.022 0.01,-0.002 0.012,-0.002 0.108,-0.014 0.01,0 0.012,0 0.116,0 0.01,0 0.01,0 0.124,0.014 0.01,0 0.01,0.002 0.096,0.018 0.01,0.002 0.006,0.002 0.094,0.026 0.006,0.002 0.01,0.002 0.088,0.036 0.008,0.002 0.008,0.002 0.084,0.042 0.008,0.004 0.008,0.004 0.082,0.048 0.004,0.002 0.008,0.006 0.078,0.054 0.004,0.006 0.008,0.004 0.072,0.06 0.006,0.006 0.004,0.004 0.068,0.066 0.006,0.004 0.004,0.006 0.066,0.072 0.004,0.004 0.002,0.006 0.06,0.074 0.004,0.008 0.004,0.006 0.052,0.08 0.006,0.004 0.002,0.006 0.048,0.084 0.004,0.006 0.004,0.006 0.042,0.088 0.002,0.006 0.002,0.006 0.038,0.09 0.002,0.008 0.004,0.006 0.032,0.094 0.002,0.006 0,0.004 0.028,0.098 0.002,0.004 0,0.008 0.022,0.1 0,0.006 0.004,0.004 0.014,0.102 0,0.006 0.002,0.008 0.008,0.102 0.002,0.004 0,0.006 0.004,0.104 0,0.006 0,0.008 -0.004,0.104 0,0.006 0,0.006 -0.01,0.106 0,0.004 -0.002,0.006 -0.014,0.104 0,0.008 -0.004,0.006 -0.022,0.104 0,0.008 -0.002,0.004 -0.028,0.106 -0.002,0.004 -0.002,0.008 -0.036,0.102 -0.002,0.006 -0.002,0.004 -0.044,0.104 -0.004,0.004 -0.002,0.008 -0.05,0.1 -0.004,0.004 -0.002,0.006 -0.058,0.098 -0.004,0.004 -0.002,0.008 -0.066,0.092 -0.004,0.008 -0.004,0.004 -0.066,0.086 0.086,0.168 0.006,0.006 0.002,0.008 0.13,0.302 0.002,0.008 0.004,0.008 0.102,0.314 0.002,0.008 0.002,0.01 0.076,0.322 0.002,0.008 0,0.008 0.036,0.22 0,0.008 0,0.004 0.02,0.22 0,0.006 0,0.006 0.004,0.216 0.002,0.004 -0.002,0.008 -0.008,0.212 0,0.006 0,0.008 -0.022,0.206 0,0.008 -0.002,0.006 -0.034,0.192 0.002,0.002 0.004,0.006 0.004,0.006 0.07,0.134 0.002,0.006 0.004,0.008 0.054,0.138 0.002,0.008 0.002,0.01 0.038,0.14 0.002,0.006 0.002,0.01 0.02,0.144 0,0.01 0,0.01 0.002,0.144 0.004,0.0102 -0.004,0.01 -0.014,0.148 -0.002,0.01 0,0.01 -0.036,0.142 -0.002,0.01 -0.002,0.01 -0.054,0.136 -0.002,0.01 -0.004,0.006 -0.066,0.128 -0.004,0.01 -0.006,0.008 -0.082,0.12 -0.006,0.006 -0.004,0.006 -0.098,0.112 -0.004,0.006 -0.006,0.006 -0.11,0.1 -0.004,0.008 -0.008,0.006 -0.12,0.09 -0.006,0.004 -0.006,0.006 -0.13,0.08 -0.008,0.004 -0.008,0.002 -0.14,0.07 -0.008,0.004 -0.004,0.002 -0.15,0.06 -0.008,0.002 -0.008,0 -0.156,0.048 -0.006,0.002 -0.008,0 -0.164,0.032 -0.006,0.004 -0.006,0 -0.04,0.004 -0.124,0.116 -0.002,0.002 -0.002,0.002 -0.182,0.16 -0.004,0.002 -0.002,0.004 -0.192,0.154 -0.002,0.002 -0.004,0.004 -0.202,0.15 -0.002,0.002 -0.002,0.002 -0.21,0.148 -0.004,0 -0.002,0.002 -0.22,0.142 -0.002,0.004 -0.002,0 -0.228,0.14 -0.002,0 -0.004,0.002 -0.236,0.134 -0.004,0 -0.002,0.004 -0.242,0.13 -0.002,0 -0.004,0.002 -0.252,0.124 -0.002,0 -0.002,0.004 -0.258,0.12 -0.002,0 -0.004,0.002 -0.266,0.114 0,0.004 -0.004,0 -0.274,0.11 -0.002,0.002 -0.28,0.108 -0.004,0 -0.002,0 -0.192,0.066 -0.05,0.176 -0.002,0.002 0,0.002 -0.088,0.268 0,0.002 -0.002,0.004 -0.094,0.256 0,0.004 -0.002,0.002 -0.0981,0.25209 -0.002,0.002 0,0.004 -0.104,0.242 -0.004,0.002 -0.002,0.006 -0.11,0.234 -0.002,0.002 0,0.004 -0.118,0.23 -0.002,0.002 0,0.002 -0.126,0.22 0,0.002 -0.002,0.006 -0.13,0.212 -0.002,0.002 0,0.004 -0.136,0.204 -0.002,0.002 -0.002,0.006 -0.14,0.194 -0.002,0.006 -0.004,0.002 -0.146,0.188 -0.004,0.004 -0.002,0.004 -0.152,0.18 -0.002,0.002 -0.004,0.004 -0.156,0.17 -0.004,0.006 -0.004,0.002 -0.162,0.162 -0.004,0.006 -0.004,0.002 -0.168,0.156 -0.004,0.002 -0.004,0.002 -0.174,0.148 -0.006,0.002 -0.002,0.002 -0.18,0.138 -0.004,0.002 -0.004,0.004 -0.186,0.13 -0.004,0.002 -0.004,0.002 -0.19,0.12 -0.006,0.002 -0.004,0.004 -0.196,0.112 -0.004,0 -0.006,0.002 -0.202,0.102 -0.002,0.004 -0.006,0.002 -0.206,0.092 -0.006,0.002 -0.004,0 -0.214,0.086 -0.004,0 -0.006,0.002 -0.216,0.072 -0.006,0.004 -0.004,0.002 -0.224,0.062 -0.004,0.002 -0.006,0 -0.23,0.056 -0.004,0.002 -0.002,0 -0.236,0.046 -0.004,0 -0.006,0.002 -0.24,0.034 -0.002,0 -0.006,0 -0.244,0.026 -0.006,0 -0.002,0 -0.252,0.018 -0.002,0 -0.006,0 -0.254,0.004 -0.006,0 -0.004,0 z m 0.136,-0.402 0.114,-0.002 0.008,0 0.232,-0.016 0.01,0 0.074,-0.008 0.03,-0.05 0.048,-0.078 0.056,-0.092 0.064,-0.106 0.072,-0.116 0.08,-0.128 0.084,-0.138 0.09,-0.144 0.094,-0.154 0.1,-0.158 0.102,-0.162 0.104,-0.168 0.106,-0.168 0.108,-0.172 0.11,-0.17 0.108,-0.168 0.108,-0.168 0.106,-0.164 0.104,-0.158 0.102,-0.154 0.098,-0.146 0.094,-0.138 0.088,-0.128 0.084,-0.118 0.078,-0.106 0.07,-0.094 0.064,-0.078 0.056,-0.066 0.046,-0.046 0.074,-0.068 0.082,-0.062 0.086,-0.062 0.09,-0.056 0.094,-0.056 0.098,-0.05 0.1,-0.05 0.102,-0.046 0.106,-0.044 0.106,-0.04 0.106,-0.038 0.108,-0.036 0.106,-0.034 0.108,-0.03 0.104,-0.03 0.104,-0.026 0.1,-0.024 0.1,-0.024 0.094,-0.02 0.092,-0.018 0.086,-0.018 0.082,-0.014 0.078,-0.014 0.07,-0.01 0.002,-0.01 0.098,-0.036 0.282,-0.1 0.004,0 0.272,-0.102 0,-0.002 0.27,-0.11 0.002,0 0.258,-0.114 0.004,-0.002 0.25,-0.114 0,-0.004 0.248,-0.122 0.006,-0.002 0.232,-0.122 0.004,-0.004 0.228,-0.13 0.006,-0.002 0.216,-0.132 0.006,-0.002 0.208,-0.138 0.004,-0.002 0.2,-0.14 0.006,-0.004 0.19,-0.142 0.006,-0.004 0.15,-0.124 -0.102,-0.012 -0.006,-0.002 -0.006,0 -0.18,-0.04 -0.008,0 -0.004,-0.002 -0.172,-0.05 -0.006,-0.004 -0.008,-0.002 -0.162,-0.064 -0.008,-0.004 -0.004,-0.002 -0.156,-0.074 -0.004,-0.004 -0.006,-0.002 -0.144,-0.088 -0.006,-0.002 -0.006,-0.004 -0.134,-0.096 -0.004,-0.004 -0.006,-0.004 -0.122,-0.104 -0.004,-0.006 -0.006,-0.004 -0.11,-0.112 -0.004,-0.006 -0.006,-0.008 -0.098,-0.12 -0.004,-0.004 -0.006,-0.008 -0.082,-0.124 -0.004,-0.008 -0.004,-0.008 -0.07,-0.132 -0.002,-0.008 -0.004,-0.008 -0.054,-0.134 -0.002,-0.01 -0.002,-0.008 -0.038,-0.14 -0.002,-0.01 -0.002,-0.01 -0.02,-0.142 0,-0.01 0,-0.01 -0.004,-0.146 -0.002,-0.01 0.002,-0.01 0.016,-0.144 0.002,-0.01 0,-0.01 0.036,-0.142 0.002,-0.01 0.002,-0.01 0.052,-0.136 0.004,-0.01 0.004,-0.01 0.066,-0.128 0.004,-0.006 0.006,-0.008 0.082,-0.12 0.004,-0.008 0.006,-0.008 0.098,-0.11 0.004,-0.006 0.006,-0.006 0.11,-0.102 0.004,-0.006 0.008,-0.004 0.12,-0.092 0.004,-0.006 0.008,-0.002 0.13,-0.082 0.008,-0.004 0.008,-0.002 0.14,-0.07 0.006,-0.004 0.006,-0.004 0.15,-0.056 0.008,-0.004 0.006,-0.002 0.158,-0.044 0.006,-0.004 0.006,0 0.166,-0.034 0.004,0 0.008,-0.002 0.17,-0.018 0.008,-0.002 0.004,0 0.178,-0.006 0.006,0 0.006,0 0.178,0.008 0.008,0 0.008,0.002 0.18,0.024 0.006,0 0.006,0.002 0.18,0.038 0.008,0.002 0.004,0 0.172,0.052 0.006,0.002 0.008,0.004 0.162,0.062 0.008,0.002 0.004,0.002 0.156,0.076 0.004,0.004 0.006,0.004 0.144,0.084 0.006,0.006 0.006,0.002 0.134,0.098 0.004,0.002 0.006,0.004 0.096,0.082 0.002,-0.03 0.01,-0.196 0,-0.014 -0.002,-0.084 -0.162,-0.28 -0.188,-0.262 -0.214,-0.242 -0.238,-0.224 -0.262,-0.21 -0.288,-0.192 -0.314,-0.176 -0.34,-0.164 -0.364,-0.148 -0.39,-0.136 -0.416,-0.124 -0.44,-0.112 -0.468,-0.102 -0.492,-0.092 -0.518,-0.082 -0.544,-0.074 -0.082,-0.01 -0.094,-0.01 -0.1,-0.008 -0.106,-0.01 -0.108,-0.012 -0.11,-0.014 -0.11,-0.016 -0.108,-0.02 -0.104,-0.024 -0.098,-0.028 -0.088,-0.034 -0.08,-0.04 -0.066,-0.046 -0.054,-0.052 -0.038,-0.062 -0.02,-0.068 -0.002,-0.04 0.006,-0.038 0.014,-0.038 0.02,-0.038 0.03,-0.036 0.04,-0.038 0.048,-0.036 0.058,-0.038 0.066,-0.038 0.078,-0.04 0.09,-0.038 0.1,-0.042 0.11,-0.042 0.122,-0.042 0.136,-0.046 0.148,-0.046 0.25,-0.072 0.252,-0.062 0.256,-0.052 0.256,-0.042 0.258,-0.032 0.258,-0.022 0.258,-0.01 0.258,0 0.22,0.008 -0.008,-0.002 -0.008,-0.002 -0.298,-0.09 -0.006,-0.002 -0.308,-0.078 -0.008,-0.002 -0.322,-0.07 -0.46996,-0.10207 0.322,-0.208 -0.06,-0.018 -0.078,-0.018 -0.084,-0.018 -0.094,-0.016 -0.102,-0.016 -0.11,-0.012 -0.116,-0.01 -0.124,-0.006 -0.132,-0.002 -0.134,-0.002 -0.128,-0.002 -0.124,-0.004 -0.118,-0.006 -0.112,-0.006 -0.106,-0.006 -0.098,-0.008 -0.09,-0.006 -0.082,-0.008 -0.074,-0.008 -0.062,-0.006 -0.054,-0.006 -0.042,-0.006 -0.03,-0.004 -0.02,-0.002 -0.006,0 0.004,-0.004 0.01,-0.012 0.018,-0.018 0.022,-0.026 0.03,-0.032 0.034,-0.038 0.038,-0.046 0.042,-0.054 0.046,-0.058 0.05,-0.066 0.052,-0.072 0.054,-0.076 0.056,-0.084 0.058,-0.09 0.058,-0.094 0.058,-0.1 0.058,-0.106 0.056,-0.112 0.056,-0.116 0.056,-0.12 0.052,-0.126 0.048,-0.132 0.048,-0.134 0.042,-0.14 0.038,-0.144 0.022,-0.102 -0.016,0.03 -0.01,0.02 -0.004,0.006 0,-0.006 -0.004,-0.016 -0.002,-0.028 -0.006,-0.036 -0.006,-0.046 -0.006,-0.054 -0.006,-0.06 -0.008,-0.068 -0.008,-0.074 -0.006,-0.078 -0.006,-0.084 -0.006,-0.086 -0.006,-0.09 -0.004,-0.09 -0.002,-0.094 0,-0.094 0,-0.09 0,-0.084 0.002,-0.08 0.002,-0.08 0.002,-0.082 0.002,-0.084 0.002,-0.092 0.004,-0.098 0.004,-0.11 0.004,-0.124 0.006,-0.138 0.006,-0.156 0.006,-0.176 0.006,-0.198 0.006,-0.224 0.008,-0.25 0.008,-0.266 0.008,-0.266 0.008,-0.266 0.01,-0.264 0.008,-0.258 0.01,-0.252 0.012,-0.246 0.01,-0.236 0.012,-0.224 0.012,-0.21 0.012,-0.198 0.014,-0.18 0.014,-0.162 0.014,-0.144 0.014,-0.126 0.016,-0.102 0.032,-0.128 0.044,-0.132 0.054,-0.136 0.064,-0.14 0.068,-0.142 0.074,-0.144 0.076,-0.148 0.076,-0.15 0.074,-0.148 0.07,-0.148 0.064,-0.146 0.056,-0.142 0.046,-0.136 0.034,-0.128 0.022,-0.118 0.006,-0.108 -0.004,-0.056 -0.006,-0.052 -0.012,-0.048 -0.014,-0.042 -0.022,-0.04 -0.026,-0.038 -0.034,-0.034 -0.04,-0.036 -0.05,-0.032 -0.062,-0.032 -0.074,-0.03 -0.086,-0.028 -0.1,-0.022 -0.112,-0.018 -0.126,-0.014 -0.142,-0.008 -0.18,-0.004 -0.164,0.004 -0.156,0.008 -0.148,0.014 -0.142,0.018 -0.134,0.024 -0.128,0.026 -0.122,0.032 -0.114,0.036 -0.108,0.04 -0.102,0.042 -0.096,0.046 -0.088,0.048 -0.084,0.05 -0.078,0.054 -0.074,0.054 -0.066,0.056 -0.12,0.118 -0.1,0.122 -0.082,0.124 -0.064,0.124 -0.05,0.124 -0.032,0.118 -0.02,0.114 -0.006,0.108 0.004,0.092 0.016,0.078 0.016,0.084 0.018,0.104 0.016,0.12 0.014,0.13999 0.016,0.15401 0.014,0.17 0.014,0.186 0.014,0.198 0.022,0.3 0.02,0.292 0.02,0.282 0.018,0.27 0.018,0.26 0.016,0.25 0.016,0.236 0.014,0.224 0.014,0.212 0.01,0.198 0.01,0.184 0.01,0.17 0.006,0.154 0.006,0.138 0.002,0.122 0.002,0.106 -0.002,0.094 -0.006,0.094 -0.008,0.09 -0.008,0.086 -0.012,0.084 -0.014,0.076 -0.014,0.074 -0.014,0.066 -0.014,0.062 -0.014,0.054 -0.014,0.048 -0.012,0.04 -0.01,0.032 -0.008,0.024 -0.004,0.014 -0.002,0.004 -0.002,-0.004 -0.008,-0.016 -0.012,-0.026 -0.016,-0.032 -0.018,-0.042 -0.022,-0.05 -0.022,-0.056 -0.022,-0.062 -0.022,-0.068 -0.024,-0.072 -0.02,-0.078 -0.018,-0.08 -0.016,-0.084 -0.012,-0.084 -0.008,-0.088 -0.002,-0.088 0,-0.08 -0.002,-0.068 -0.002,-0.06 -0.004,-0.052 -0.004,-0.05 -0.004,-0.048 -0.006,-0.054 -0.006,-0.058 -0.006,-0.068 -0.008,-0.082 -0.008,-0.096 -0.01,-0.116 -0.008,-0.138 -0.01,-0.162 -0.012,-0.192 -0.01,-0.224 -0.012,-0.24 -0.012,-0.24 -0.012,-0.24 -0.012,-0.236 -0.014,-0.23 -0.014,-0.224 -0.012,-0.218 -0.014,-0.206 -0.014,-0.196 -0.014,-0.18204 -0.016,-0.168 -0.014,-0.152 -0.002,-0.012 -0.01,0 -0.582,0.034 -0.006,0 -0.002,0 -0.58,0.01 -0.004,0 -0.006,0 -0.574,-0.016 -0.006,0 -0.006,0 -0.572,-0.04 -0.008,0 -0.004,0.024 -0.014,0.152 -0.014,0.168 -0.014,0.182 -0.014,0.196 -0.022,0.314 -0.02,0.334 -0.018,0.348 -0.02,0.358 -0.018,0.36 -0.016,0.36 -0.016,0.35 -0.014,0.338 -0.002,0.076 -0.004,0.066 -0.002,0.056 -0.002,0.048 0,0.012 0.002,-0.008 0,-0.006 0.002,-0.002 0.002,0.006 0,0.012 0,0.018 0.002,0.024 0,0.032 0,0.04 0,0.05 -0.002,0.106 -0.008,0.106 -0.014,0.102 -0.016,0.102 -0.02,0.096 -0.02,0.092 -0.024,0.088 -0.024,0.082 -0.024,0.074 -0.024,0.068 -0.02,0.058 -0.02,0.05 -0.016,0.04 -0.014,0.03 -0.008,0.02 -0.002,0.006 -0.002,-0.006 -0.004,-0.016 -0.008,-0.026 -0.008,-0.034 -0.012,-0.042 -0.012,-0.052 -0.012,-0.058 -0.014,-0.066 -0.014,-0.07 -0.012,-0.076 -0.012,-0.082 -0.012,-0.086 -0.008,-0.09 -0.008,-0.092 -0.004,-0.094 -0.002,-0.096 0,-0.09 0,-0.072 0,-0.06 -0.002,-0.052 0,-0.048 0,-0.044 0,-0.048 0.002,-0.052 0.002,-0.062 0.002,-0.074 0.002,-0.09 0.006,-0.11 0.006,-0.132 0.006,-0.158 0.01,-0.19 0.01,-0.222 0.012,-0.24 0.01,-0.24201 0.014,-0.24 0.012,-0.236 0.014,-0.234 0.012,-0.226 0.014,-0.218 0.014,-0.208 0.014,-0.198 0.016,-0.18599 0.014,-0.17001 0.014,-0.154 0.016,-0.138 0.016,-0.12199 0.016,-0.10201 0.018,-0.084 0.016,-0.092 0.006,-0.104 -0.006,-0.108 -0.018,-0.114 -0.032,-0.12 -0.046,-0.12 -0.06,-0.12399 -0.078,-0.12201 -0.094,-0.11799 -0.114,-0.11401 -0.064,-0.056 -0.068,-0.054 -0.076,-0.05 -0.08,-0.05 -0.086,-0.048 -0.092,-0.044 -0.098,-0.042 -0.104,-0.038 -0.112,-0.034 -0.118,-0.032 -0.124,-0.026 -0.132,-0.022 -0.138,-0.02 -0.146,-0.012 -0.154,-0.008 -0.162,-0.004 -0.18,0.004 -0.144,0.008 -0.13,0.014 -0.116,0.02 -0.102,0.024 -0.088,0.028 -0.076,0.03 -0.062,0.034 -0.052,0.036 -0.042,0.036 -0.034,0.038 -0.028,0.04 -0.022,0.042 -0.016,0.046 -0.012,0.052 -0.008,0.054 -0.002,0.062 0.006,0.108 0.02,0.118 0.032,0.128 0.042,0.134 0.052,0.14 0.06,0.144 0.066,0.14601 0.068,0.14599 0.072,0.146 0.07,0.144 0.068,0.142 0.066,0.14 0.058,0.136 0.052,0.134 0.042,0.128 0.03,0.126 0.016,0.102 0.016,0.126 0.014,0.144 0.014,0.162 0.012,0.18 0.012,0.198 0.012,0.21 0.012,0.224 0.016,0.34 0.016,0.326 0.014,0.314 0.014,0.3 0.012,0.288 0.01,0.272 0.01,0.258 0.01,0.242 0.008,0.226 0.006,0.212 0.006,0.194 0.004,0.176 0.004,0.16 0.004,0.142 0,0.122 0.002,0.106 -0.002,0.126 -0.008,0.118 -0.01,0.112 -0.012,0.104 -0.016,0.098 -0.016,0.09 -0.018,0.082 -0.018,0.074 -0.02,0.066 -0.018,0.058 -0.016,0.048 -0.016,0.042 -0.012,0.032 -0.01,0.022 -0.006,0.014 -0.002,0.006 -0.002,-0.006 -0.006,-0.016 -0.01,-0.028 -0.014,-0.038 -0.014,-0.046 -0.018,-0.054 -0.014,-0.052 0.002,0.146 0.014,0.214 0.022,0.204 0.028,0.19 0.038,0.18 0.044,0.17 0.05,0.158 0.056,0.15 0.064,0.138 0.068,0.128 0.072,0.12 0.078,0.11 0.082,0.102 0.086,0.092 0.088,0.086 0.092,0.076 0.094,0.07 0.096,0.06 0.098,0.056 0.098,0.046 0.1,0.042 0.1,0.034 0.1,0.03 0.1,0.022 0.098,0.018 0.098,0.014 0.094,0.006 0.094,0.004 0.09,0 0.088,-0.006 0.086,-0.008 0.08,-0.012 0.17,-0.026 0.168,-0.018 0.164,-0.01 0.16,-0.002 0.154,0.006 0.152,0.014 0.146,0.02 0.14,0.026 0.136,0.034 0.132,0.04 0.124,0.048 0.12,0.052 0.114,0.058 0.106,0.064 0.1,0.07 0.094,0.074 0.086,0.078 0.08,0.084 0.072,0.09 0.064,0.092 0.056,0.096 0.046,0.102 0.04,0.104 0.03,0.108 0.022,0.11 0.014,0.114 0.002,0.116 -0.006,0.12 -0.016,0.12 -0.026,0.124 -0.038,0.124 -0.046,0.128 -0.1,0.25 -0.094,0.242 -0.084,0.234 -0.078,0.224 -0.068,0.218 -0.064,0.21 -0.054,0.202 -0.048,0.196 -0.042,0.188 -0.036,0.182 -0.028,0.174 -0.024,0.168 -0.016,0.162 -0.012,0.154 -0.006,0.15 0,0.144 0.004,0.138 0.008,0.132 0.014,0.128 0.018,0.122 0.022,0.118 0.026,0.114 0.03,0.108 0.032,0.104 0.038,0.1 0.038,0.096 0.044,0.094 0.044,0.088 0.048,0.086 0.05,0.084 0.052,0.08 0.054,0.076 0.056,0.076 0.058,0.072 0.058,0.07 0.06,0.068 0.06,0.068 0.062,0.064 0.06,0.064 0.062,0.062 0.062,0.062 0.06,0.06 0.062,0.06 0.06,0.06 0.06,0.058 0.058,0.06 0.058,0.058 0.056,0.06 0.054,0.06 0.052,0.062 0.05,0.062 0.048,0.062 0.046,0.064 0.042,0.066 0.04,0.068 0.036,0.068 0.034,0.072 0.03,0.074 0.026,0.076 0.022,0.078 0.018,0.08 0.014,0.086 0.01,0.086 0.004,0.092 -0.006,0.132 -0.018,0.146 -0.03,0.158 -0.044,0.17 -0.054,0.178 -0.064,0.186 -0.074,0.194 -0.082,0.2 -0.09,0.206 -0.096,0.208 -0.1,0.212 -0.106,0.214 -0.11,0.214 -0.114,0.214 -0.114,0.212 -0.116,0.208 -0.114,0.206 -0.116,0.2 -0.112,0.192 -0.11,0.188 -0.108,0.178 -0.102,0.168 -0.096,0.158 -0.092,0.146 -0.082,0.132 -0.076,0.12 -0.066,0.102 -0.032,0.05 z m 9.558,-11.348 0.048,-0.07 0.008,-0.012 0.042,-0.072 0.008,-0.014 0.036,-0.074 0.006,-0.012 0.038,-0.09 0.002,0 0.024,-0.078 0.006,-0.012 0.022,-0.08 0.002,-0.014 0.018,-0.08 0.002,-0.012 0.014,-0.092 0.006,-0.082 0,-0.01 0.004,-0.084 0,-0.01 -0.004,-0.082 0,-0.01 -0.006,-0.08 -0.004,-0.012 -0.01,-0.078 -0.002,0 -0.018,-0.088 -0.002,-0.012 -0.02,-0.072 -0.004,-0.012 -0.026,-0.074 -0.002,-0.01 -0.03,-0.07 -0.006,-0.01 -0.032,-0.064 -0.04,-0.072 -0.008,-0.014 -0.036,-0.056 -0.05,-0.066 -0.01,-0.01 -0.044,-0.05 -0.01,-0.01 -0.046,-0.044 -0.01,-0.01 -0.048,-0.04 -0.012,-0.01 -0.05,-0.036 -0.016,-0.01 -0.052,-0.03 -0.016,-0.008 -0.07,-0.032 -0.054,-0.022 -0.016,-0.006 -0.002,0 -0.074,-0.02 -0.064,-0.012 -0.016,-0.002 -0.088,-0.008 -0.118,0 -0.064,0.008 -0.096,0.022 -0.004,0 -0.05,0.018 -0.018,0.008 -0.006,0.002 -0.046,0.022 -0.004,0.002 -0.08,0.05 -0.06,0.048 -0.05,0.046 -0.006,0.006 -0.004,0.004 -0.05,0.052 -0.006,0.008 -0.05,0.06 -0.006,0.006 -0.052,0.068 -0.006,0.008 -0.05,0.072 -0.004,0.006 -0.052,0.08 -0.004,0.002 -0.032,0.052 0.2,0.096 0.208,0.116 0.198,0.128 0.188,0.142 0.18,0.154 0.166,0.166 0.156,0.18 0.144,0.194 0.132,0.206 0.058,0.108 z m -17.412,-2.29 0.06,0 0.042,-0.006 0.048,-0.016 0.03,-0.018 0.026,-0.018 0.002,-0.002 0.034,-0.034 0.04,-0.05 0.01,-0.016 0.028,-0.044 0.008,-0.016 0.03,-0.06 0.004,-0.01 0.032,-0.074 0.004,-0.008 0.032,-0.088 0.002,-0.004 0.036,-0.1 0,-0.004 0.034,-0.11 0,-0.002 0.038,-0.12 0,-0.002 0.038,-0.128 0.04,-0.138 0.032,-0.11 -0.026,-0.022 -0.072,-0.062 -0.08,-0.074 -0.084,-0.082 -0.086,-0.09 -0.086,-0.098 -0.08,-0.102 -0.076,-0.106 -0.02,-0.036 -0.04,0.126 0,0.004 -0.002,0 -0.064,0.226 -0.002,0.004 -0.052,0.214 -0.002,0.006 -0.044,0.198 -0.002,0.01 -0.03,0.182 -0.002,0.01 -0.02,0.18 -0.008,0.148 0,0.01 0,0.006 0.002,0.124 0.016,0.132 0,0.01 0.022,0.086 0.03,0.068 0.032,0.046 0.036,0.034 0.036,0.016 0.054,0.01 z m 2.496,-7.986 -0.096,-0.074 -0.126,-0.1 -0.12,-0.094 -0.114,-0.094 -0.106,-0.094 -0.044,-0.042 0.092,0.102 0.008,0.008 0.002,0.002 0.1,0.094 0.01,0.012 0.108,0.086 0.01,0.008 0.11,0.082 0.01,0.008 0.112,0.072 0.008,0.006 0.006,0.002 0.03,0.016 z"
       id="path3210" /><path
       style="fill:#000000;fill-opacity:1;fill-rule:nonzero;stroke:none"
       d="m 297.47587,230.51876 5.202,-1.8 4.344,-5.186 -1.822,-18.876 -1.662,-1.844 -3.322,-0.656 -11.722,0.308 1.188,10.738 -3.55,0.984 -0.712,8.638 5.33,2.554 1.4,3.328 5.326,1.812 z m -0.108,-1.096 c -0.0503,0.002 -0.10144,0 -0.152,0 -1.4188,0 -2.62792,-0.45608 -3.582,-1.292 -0.93216,-0.8172 -1.61376,-1.9964 -2.04,-3.448 -1.39656,-0.49 -2.5824,-1.14752 -3.428,-1.96 -0.75224,-0.10216 -1.36776,-0.5724 -1.484,-1.254 -0.0578,-0.33904 0.0179,-0.67168 0.192,-0.962 -0.0838,-0.4272 -0.0883,-0.8748 -0.004,-1.336 0.0766,-0.41688 0.22656,-0.80576 0.426,-1.172 -0.4144,-0.49808 -0.52944,-1.13128 -0.396,-1.676 0.14408,-0.58688 0.5744,-1.08824 1.19,-1.176 0.39507,-0.0566 0.71347,0.0586 0.94603,0.254 0.0987,0.0831 0.18272,0.178 0.258,0.278 0.0728,0.0806 0.13856,0.16568 0.202,0.252 0.59968,-0.31784 1.27648,-0.56344 2.008,-0.73 -0.79968,-2.22688 -0.85624,-4.94752 -0.13,-7.34 -0.76,-0.3316 -1.484,-1.09959 -1.484,-2.038 0,-0.56063 0.22856,-0.93903 0.582,-1.12 0.29312,-0.15032 0.6464,-0.17666 1.022,-0.186 -0.009,-0.0662 -0.0254,-0.13078 -0.026,-0.198 -0.005,-0.29935 0.11656,-0.62247 0.4,-0.83 0.26997,-0.19966 0.62565,-0.28847 1.08597,-0.306 l 0.002,0 c 0.0681,-0.002 0.13432,-0.002 0.2,-0.002 l 0.004,0 c 1.00344,0 1.7288,0.28416 2.2,0.702 0.47064,0.41753 0.67368,0.94656 0.674,1.4 0,0.0875 -0.0138,0.17291 -0.03,0.256 0.61968,0.0397 1.238,0.0342 1.848,-0.012 -0.0162,-0.0859 -0.03,-0.17447 -0.03,-0.266 0,-0.44375 0.18576,-0.96872 0.642,-1.384 0.45656,-0.41569 1.16728,-0.696 2.156,-0.696 l 0.004,0 c 0.003,0 0.004,-6.4e-4 0.01,0 0.0622,0 0.125,-1.6e-4 0.18996,0.002 0.47248,0.0178 0.83792,0.10984 1.112,0.318 0.28624,0.21497 0.40432,0.54593 0.4,0.85 -6.4e-4,0.0571 -0.0134,0.11209 -0.02,0.168 0.36872,0.0113 0.71878,0.0401 1.006,0.192 0.34653,0.18312 0.568,0.55856 0.568,1.112 0,0.93784 -0.72232,1.70609 -1.482,2.038 0.0972,0.3056 0.18536,0.61696 0.256,0.936 1.07505,1.21032 1.98359,2.86032 2.488,4.24 0.25431,0.69624 0.40897,1.31864 0.418,1.804 0.005,0.24248 -0.0234,0.45432 -0.118,0.63 -0.0947,0.17528 -0.282,0.3004 -0.492,0.312 -0.154,0.008 -0.30153,-0.0258 -0.42,-0.104 -0.11809,-0.0781 -0.20359,-0.19128 -0.272,-0.316 -0.13719,-0.24936 -0.22015,-0.56272 -0.328,-0.934 -0.18312,-0.63088 -0.44783,-1.4216 -1.026,-2.226 -0.0734,1.17064 -0.31112,2.314 -0.722,3.344 1.46033,0.24528 2.50493,0.93952 3.08,1.892 0.0387,0.0644 0.0737,0.13144 0.108,0.198 0.0178,0.0341 0.0354,0.0674 0.052,0.102 0.0343,0.0722 0.0663,0.14568 0.096,0.22 0.0294,0.0744 0.0577,0.14976 0.082,0.226 0.0126,0.0388 0.0231,0.0769 0.034,0.116 0.01,0.0337 0.0192,0.0676 0.028,0.102 8e-4,0.005 0.002,0.009 0.004,0.014 0.003,0.0131 0.006,0.0266 0.01,0.04 0.006,0.0259 0.0124,0.0521 0.018,0.078 0.009,0.0416 0.0165,0.0841 0.024,0.126 0.007,0.0381 0.0144,0.0756 0.02,0.114 8e-4,0.006 0.002,0.0106 0.002,0.016 0.006,0.0346 0.01,0.071 0.014,0.106 0.005,0.0406 0.008,0.0808 0.012,0.122 0.003,0.0413 0.006,0.0824 0.008,0.124 0.002,0.041 0.005,0.0824 0.006,0.124 6.3e-4,0.0206 0.002,0.041 0.002,0.062 l 0,0.032 c 0,0.0278 -0.002,0.0562 -0.002,0.084 -2.5e-4,0.0247 -8e-4,0.0494 -0.002,0.074 -0.003,0.0847 -0.008,0.16872 -0.016,0.254 -0.003,0.0366 -0.006,0.0731 -0.01,0.11 -3.5e-4,0.003 -0.002,0.005 -0.002,0.008 -0.002,0.0118 -0.002,0.0238 -0.004,0.036 -0.005,0.0341 -0.009,0.0679 -0.014,0.102 -0.006,0.0444 -0.0138,0.0896 -0.022,0.134 -0.007,0.0418 -0.0156,0.0842 -0.024,0.126 -0.009,0.0431 -0.018,0.0869 -0.028,0.13 -0.0203,0.0872 -0.0447,0.17448 -0.07,0.262 -0.0253,0.0871 -0.052,0.17448 -0.082,0.262 -0.009,0.0247 -0.0169,0.0493 -0.026,0.074 -0.006,0.0184 -0.0151,0.0373 -0.022,0.056 -0.011,0.029 -0.0208,0.0589 -0.032,0.088 -0.006,0.0146 -0.0121,0.0294 -0.018,0.044 -0.0178,0.0444 -0.037,0.0876 -0.056,0.132 -0.0362,0.0838 -0.0734,0.16856 -0.114,0.252 -0.002,0.003 -0.005,0.006 -0.006,0.01 -0.0213,0.0438 -0.0435,0.0866 -0.066,0.13 -3.2e-4,6.4e-4 0,0.002 0,0.002 -0.11063,0.2128 -0.21415,0.42096 -0.312,0.626 -0.002,0.006 -0.005,0.0121 -0.008,0.018 -0.0947,0.19912 -0.18359,0.39336 -0.268,0.584 -0.005,0.0113 -0.009,0.0227 -0.014,0.034 -0.0443,0.10064 -0.0881,0.19952 -0.13,0.298 -0.12559,0.29432 -0.23991,0.57808 -0.348,0.85 -0.13344,0.33528 -0.25563,0.64816 -0.374,0.946 -0.0106,0.0262 -0.0197,0.0501 -0.03,0.076 -0.0522,0.13 -0.10272,0.25384 -0.154,0.376 -0.0303,0.0725 -0.0618,0.14432 -0.092,0.214 -0.0306,0.07 -0.061,0.13912 -0.092,0.206 -0.0134,0.029 -0.0266,0.0595 -0.04,0.088 -0.0478,0.10088 -0.0963,0.19792 -0.146,0.292 -0.002,0.003 -0.004,0.006 -0.006,0.01 -0.0278,0.0525 -0.0553,0.104 -0.084,0.154 -0.006,0.009 -0.0107,0.0186 -0.016,0.028 -0.0641,0.11056 -0.13,0.2156 -0.2,0.314 -0.003,0.004 -0.007,0.006 -0.01,0.01 -0.0334,0.0469 -0.0666,0.0919 -0.102,0.136 -0.002,0.003 -0.006,0.006 -0.008,0.01 -0.0569,0.0702 -0.11576,0.13712 -0.178,0.2 -0.0406,0.0409 -0.0829,0.0805 -0.126,0.118 -0.008,0.007 -0.0158,0.0148 -0.024,0.022 -0.1,0.084 -0.20736,0.15688 -0.322,0.22 -0.2488,0.13656 -0.53256,0.22464 -0.856,0.254 -0.92504,0.95376 -2.31176,1.57048 -3.868,1.608 z m -0.006,-0.4 c 1.30064,-0.0322 2.46744,-0.49664 3.304,-1.216 -0.45192,-0.0582 -0.81536,-0.24648 -1.096,-0.534 -0.34216,-0.35096 -0.56368,-0.83288 -0.75,-1.396 -0.37216,-1.12656 -0.60096,-2.60168 -1.176,-4.126 -0.8884,-2.35472 -0.668,-3.9524 0.112,-4.948 0.77968,-0.9956 2.06744,-1.354 3.22,-1.354 0.284,0 0.55736,0.0138 0.818,0.042 0.47752,-1.16 0.732,-2.49768 0.756,-3.848 l 0.006,-0.516 0.344,0.39 c 0.88503,1.01344 1.20681,2.05088 1.424,2.8 0.10881,0.37432 0.19446,0.6768 0.292,0.854 0.0487,0.0884 0.0984,0.14168 0.144,0.172 0.046,0.0303 0.0953,0.0447 0.18,0.04 0.09,-0.005 0.11753,-0.023 0.16,-0.102 0.0429,-0.0791 0.0741,-0.22952 0.07,-0.432 -0.007,-0.40464 -0.14872,-1.00472 -0.394,-1.676 -0.49098,-1.3428 -1.39913,-2.98536 -2.44,-4.146 l -0.036,-0.04 -0.01,-0.05 c -0.0834,-0.38624 -0.18688,-0.76424 -0.31,-1.128 l -0.066,-0.188 0.188,-0.064 c 0.6672,-0.23097 1.388,-0.95744 1.388,-1.734 0,-0.46216 -0.12848,-0.63969 -0.356,-0.76 -0.2272,-0.12031 -0.59928,-0.15169 -1.044,-0.156 l -0.054,0 c -0.0744,0.22837 -0.17936,0.45647 -0.284,0.678 -0.19248,0.39753 -0.3904,0.78031 -0.426,0.996 -0.0363,0.19465 -0.0726,0.68744 -0.102,1.294 -0.03,0.60912 -0.054,1.3416 -0.074,2.046 -0.0397,1.40808 -0.06,1.02704 -0.06,1.618 0,0.59128 -0.2,1.086 -0.2,1.086 0,0 -0.2,-0.40296 -0.2,-1.092 0,-0.50528 0.0457,-1.83632 0.136,-3.676 0.0306,-0.61592 0.0642,-1.10263 0.108,-1.348 0.0631,-0.32775 0.26944,-0.70191 0.456,-1.096 0.18912,-0.38903 0.35144,-0.79087 0.348,-1.064 -0.004,-0.17031 -0.0434,-0.27375 -0.164,-0.37 -0.1228,-0.0962 -0.36376,-0.18025 -0.77,-0.194 -0.061,-0.002 -0.1212,-0.004 -0.18,-0.004 -0.8828,5.6e-4 -1.42848,0.24281 -1.756,0.54 -0.32752,0.29687 -0.446,0.66184 -0.446,0.94 0,0.0728 0.008,0.14128 0.022,0.196 0.0478,0.19718 0.0853,0.60743 0.124,1.154 0.0378,0.54246 0.072,1.20344 0.102,1.844 0.06,1.28192 0.044,0.98528 0.044,1.504 0,0.51912 -0.144,0.986 -0.144,0.986 0,0 -0.258,-0.55 -0.258,-1.12 0,-0.56968 0.0366,0.45256 0,-0.424 -0.0366,-0.87656 -0.0878,-1.95575 -0.144,-2.762 -0.019,-0.28215 -0.0418,-0.53191 -0.062,-0.726 l -0.004,0 c -0.77224,0.071 -1.55824,0.0798 -2.346,0.016 l -0.004,0 c -0.02,0.19162 -0.0416,0.43657 -0.06,0.71 -0.0372,0.53753 -0.072,1.19696 -0.102,1.836 -0.0597,1.27851 -0.10001,1.07571 -0.10001,1.54603 0,0.47 -0.244,0.93 -0.244,0.93 0,0 -0.156,-0.42512 -0.156,-0.942 0,-0.51688 0.0912,-1.77144 0.204,-3.398 0.0388,-0.54657 0.0738,-0.95815 0.122,-1.156 0.0118,-0.0481 0.02,-0.10528 0.02,-0.17 2.4e-4,-0.27215 -0.12936,-0.64728 -0.474,-0.952 -0.34472,-0.30472 -0.91168,-0.55144 -1.806,-0.552 -0.0588,0 -0.11704,0.002 -0.178,0.004 -0.39528,0.0132 -0.63264,0.0928 -0.752,0.184 -0.11688,0.0916 -0.15424,0.18544 -0.158,0.346 -0.004,0.26913 0.16952,0.67841 0.372,1.074 0.20032,0.40193 0.42064,0.78378 0.486,1.12 0.0437,0.24537 0.0774,0.73208 0.108,1.348 0.03,0.61344 0.056,1.34608 0.076,2.052 0.0403,1.41157 0.06,1.56597 0.06,2.06597 0,0.50032 -0.076,1.004 -0.076,1.004 0,0 -0.324,-0.57024 -0.324,-1.004 0,-0.43344 -0.0115,-0.0783 -0.034,-1.038 -0.0229,-0.95968 -0.0554,-2.14824 -0.1,-3.062 -0.0294,-0.60656 -0.0658,-1.09935 -0.102,-1.294 -0.0353,-0.216 -0.24576,-0.60822 -0.452,-1.012 -0.10784,-0.21719 -0.21496,-0.43923 -0.294,-0.662 l -0.064,0 c -0.45376,0.003 -0.83592,0.0323 -1.07,0.152 -0.23376,0.12 -0.364,0.29584 -0.364,0.764 0,0.77656 0.7208,1.50303 1.388,1.734 l 0.184,0.062 -0.06,0.188 c -0.76688,2.38152 -0.70952,5.16224 0.112,7.366 l 0.408,0.264 -0.482,0.094 c -0.3328,0.0659 -0.65448,0.14928 -0.962,0.248 0.75248,-0.0453 1.53704,0.0545 2.272,0.282 0.82032,0.25368 1.09368,0.42568 1.064,0.636 -0.0553,0.39376 -0.94992,0.40088 -1.368,0.454 -2.9688,0.37592 -4.836,1.07312 -5.636,2.62 -5.6e-4,0.002 -0.002,0.003 -0.002,0.004 -0.002,0.10816 0.002,0.21504 0.01,0.32 0.2928,-0.26248 0.68328,-0.45304 1.122,-0.528 0.13064,-0.0222 0.26048,-0.0334 0.388,-0.034 0.89248,-0.005 1.6712,0.50112 1.804,1.278 0.1512,0.88747 -0.612,1.72155 -1.656,1.90003 -0.0354,0.006 -0.069,0.0116 -0.104,0.016 0.7828,0.64776 1.82696,1.19784 3.046,1.616 l 0.1,0.034 0.026,0.102 c 0.0503,0.17784 0.10384,0.34952 0.162,0.518 0.11656,-0.13248 0.30024,-0.216 0.568,-0.216 0.51312,0 0.93,0.30336 0.93,0.678 0,0.37472 -0.41688,0.678 -0.93,0.678 -0.0278,0 -0.0538,-0.002 -0.08,-0.004 0.35688,0.67968 0.79304,1.25016 1.304,1.698 0.8828,0.77344 1.98624,1.192 3.32,1.192 0.0484,0 0.0958,0.002 0.144,0 z m 3.614,-1.596 c 0.0322,0 0.0647,-7.2e-4 0.096,-0.002 l 0.03,-0.002 0.036,-0.002 c 0.059,-0.004 0.11504,-0.008 0.17,-0.016 0.01,-8e-4 0.0203,-0.003 0.03,-0.004 0.0172,-0.003 0.0354,-0.007 0.052,-0.01 0.0266,-0.005 0.0524,-0.008 0.078,-0.014 0.051,-0.0113 0.10048,-0.025 0.148,-0.04 0.0102,-0.003 0.0217,-0.006 0.032,-0.01 0.0128,-0.005 0.0251,-0.009 0.038,-0.014 2.4e-4,-3.2e-4 0.002,3.2e-4 0.002,0 0.0453,-0.0169 0.0875,-0.0357 0.13,-0.056 0.0431,-0.0206 0.0857,-0.0436 0.126,-0.068 0.0122,-0.007 0.0242,-0.0145 0.036,-0.022 0.008,-0.006 0.0162,-0.0107 0.024,-0.016 0.0347,-0.0232 0.0669,-0.0481 0.1,-0.074 0.006,-0.005 0.0138,-0.009 0.02,-0.014 0.0357,-0.0287 0.0699,-0.0602 0.104,-0.092 0.0278,-0.0263 0.0551,-0.0535 0.082,-0.082 0.0157,-0.0162 0.0306,-0.0328 0.046,-0.05 0.006,-0.007 0.0121,-0.0131 0.018,-0.02 0.0206,-0.0238 0.0397,-0.0486 0.06,-0.074 0.0331,-0.0415 0.0658,-0.0843 0.098,-0.13 0.0287,-0.0406 0.0578,-0.0839 0.086,-0.128 0.005,-0.008 0.0114,-0.0142 0.016,-0.022 0.0297,-0.0466 0.0573,-0.0957 0.086,-0.146 0.0254,-0.0434 0.0513,-0.0877 0.076,-0.134 0.006,-0.01 0.0103,-0.0197 0.016,-0.03 0.0162,-0.0309 0.0318,-0.0618 0.048,-0.094 0.0278,-0.055 0.0565,-0.11224 0.084,-0.17 0.002,-0.006 0.005,-0.0121 0.008,-0.018 0.0128,-0.0272 0.0252,-0.0542 0.038,-0.082 0.0298,-0.0644 0.0583,-0.13016 0.088,-0.198 0.0228,-0.0525 0.0469,-0.1056 0.07,-0.16 0.0306,-0.0722 0.0614,-0.1504 0.092,-0.226 0.0354,-0.0859 0.0721,-0.17368 0.108,-0.264 6.4e-4,-0.002 0.002,-0.002 0.002,-0.004 0.11719,-0.29464 0.23728,-0.60616 0.372,-0.944 0.0353,-0.0884 0.0728,-0.1784 0.11,-0.27 0.0397,-0.0981 0.0778,-0.19472 0.12,-0.296 0.006,-0.0156 0.0114,-0.0304 0.018,-0.046 0.0344,-0.0822 0.0697,-0.1636 0.106,-0.248 0.006,-0.0131 0.0101,-0.0266 0.016,-0.04 0.0372,-0.0869 0.0766,-0.17528 0.116,-0.264 0.005,-0.011 0.009,-0.021 0.014,-0.032 0.0406,-0.0918 0.0808,-0.18432 0.124,-0.278 0.004,-0.008 0.008,-0.0159 0.012,-0.024 0.0447,-0.0969 0.0908,-0.19496 0.138,-0.294 0.002,-0.006 0.006,-0.0107 0.008,-0.016 0.0488,-0.10224 0.0985,-0.20392 0.15,-0.308 0.0544,-0.10936 0.11015,-0.22048 0.168,-0.332 0.0422,-0.0816 0.0825,-0.16272 0.12,-0.244 0.002,-0.006 0.003,-0.011 0.006,-0.016 0.005,-0.011 0.0114,-0.021 0.016,-0.032 0.0113,-0.0243 0.0214,-0.0497 0.032,-0.074 0.005,-0.0113 0.009,-0.023 0.014,-0.034 0.0191,-0.0444 0.0368,-0.0876 0.054,-0.132 0.0138,-0.0346 0.0272,-0.0694 0.04,-0.104 0.009,-0.0241 0.0176,-0.0479 0.026,-0.072 0.005,-0.0125 0.007,-0.0255 0.012,-0.038 0.006,-0.0169 0.0127,-0.0334 0.018,-0.05 0.006,-0.0194 0.0121,-0.039 0.018,-0.058 0.01,-0.0313 0.0206,-0.0627 0.03,-0.094 0.006,-0.0184 0.0107,-0.0376 0.016,-0.056 0.0272,-0.0959 0.0514,-0.19136 0.072,-0.286 0.002,-0.01 0.004,-0.02 0.006,-0.03 0.006,-0.0288 0.0127,-0.0576 0.018,-0.086 0.003,-0.0147 0.006,-0.0297 0.008,-0.044 3.1e-4,-0.002 -3.1e-4,-0.002 0,-0.004 0.003,-0.0162 0.005,-0.0317 0.008,-0.048 0.004,-0.0234 0.009,-0.0466 0.012,-0.07 3.1e-4,-0.002 -3.1e-4,-0.004 0,-0.006 0.006,-0.0394 0.0114,-0.079 0.016,-0.118 0.002,-0.0154 0.005,-0.0306 0.006,-0.046 0.002,-0.0212 0.004,-0.0428 0.006,-0.064 5.6e-4,-0.009 8e-4,-0.019 0.002,-0.028 0.006,-0.0684 0.01,-0.13648 0.012,-0.204 0.003,-0.0766 0.004,-0.15272 0.002,-0.228 -6.6e-4,-0.0257 -7.1e-4,-0.0503 -0.002,-0.076 -0.002,-0.0371 -0.006,-0.0748 -0.008,-0.112 -0.002,-0.0259 -0.003,-0.052 -0.006,-0.078 -0.002,-0.014 -0.002,-0.0279 -0.004,-0.042 -8e-4,-0.009 -0.003,-0.0186 -0.004,-0.028 -0.004,-0.0302 -0.008,-0.0617 -0.012,-0.092 -8e-4,-0.006 -8e-4,-0.0107 -0.002,-0.016 -0.01,-0.0657 -0.0226,-0.12992 -0.036,-0.194 -0.002,-0.007 -0.002,-0.0149 -0.004,-0.022 -0.002,-0.011 -0.006,-0.0214 -0.008,-0.032 -0.006,-0.0246 -0.01,-0.0496 -0.016,-0.074 -8e-4,-0.004 -0.003,-0.008 -0.004,-0.012 -0.009,-0.0362 -0.0177,-0.072 -0.028,-0.108 -0.002,-0.006 -0.005,-0.0103 -0.006,-0.016 -0.007,-0.0238 -0.0142,-0.0486 -0.022,-0.072 -0.003,-0.009 -0.007,-0.0186 -0.01,-0.028 -0.0109,-0.0331 -0.0222,-0.0655 -0.034,-0.098 -0.008,-0.021 -0.0159,-0.0414 -0.024,-0.062 -0.002,-0.006 -0.004,-0.0107 -0.006,-0.016 -0.0113,-0.0275 -0.0225,-0.0549 -0.034,-0.082 -0.002,-0.005 -0.004,-0.01 -0.006,-0.014 -0.008,-0.0175 -0.0162,-0.0345 -0.024,-0.052 -0.007,-0.0146 -0.0131,-0.0294 -0.02,-0.044 -0.005,-0.009 -0.01,-0.0172 -0.014,-0.026 -0.006,-0.0115 -0.0101,-0.0244 -0.016,-0.036 -0.006,-0.0112 -0.0121,-0.0224 -0.018,-0.034 -0.0125,-0.024 -0.0249,-0.0482 -0.038,-0.072 -0.004,-0.007 -0.008,-0.0149 -0.012,-0.022 -0.0141,-0.0254 -0.029,-0.0494 -0.044,-0.074 -0.0131,-0.0222 -0.0259,-0.0445 -0.04,-0.066 -0.007,-0.0113 -0.0148,-0.0228 -0.022,-0.034 -0.002,-0.002 -0.004,-0.005 -0.006,-0.008 -0.0394,-0.0597 -0.0823,-0.11848 -0.126,-0.176 -0.0113,-0.0147 -0.0225,-0.0293 -0.034,-0.044 -0.011,-0.0134 -0.0207,-0.0266 -0.032,-0.04 -0.004,-0.005 -0.008,-0.009 -0.012,-0.014 -0.0244,-0.0294 -0.0504,-0.0593 -0.076,-0.088 -0.002,-0.002 -0.002,-0.002 -0.004,-0.004 -0.0178,-0.02 -0.0355,-0.0403 -0.054,-0.06 -0.008,-0.009 -0.0176,-0.0173 -0.026,-0.026 -0.0222,-0.0231 -0.0432,-0.0455 -0.066,-0.068 -0.0128,-0.0125 -0.0249,-0.0258 -0.038,-0.038 -0.015,-0.0144 -0.0307,-0.0279 -0.046,-0.042 -0.0422,-0.0384 -0.0873,-0.0751 -0.132,-0.112 -0.0241,-0.0197 -0.0473,-0.039 -0.072,-0.058 -0.008,-0.006 -0.0155,-0.0138 -0.024,-0.02 -0.006,-0.005 -0.0134,-0.009 -0.02,-0.014 -0.0287,-0.0215 -0.0583,-0.0431 -0.088,-0.064 -0.0303,-0.0216 -0.0604,-0.0434 -0.092,-0.064 -0.009,-0.006 -0.0186,-0.0118 -0.028,-0.018 -0.025,-0.0162 -0.0507,-0.0324 -0.076,-0.048 -0.0347,-0.0213 -0.07,-0.0417 -0.106,-0.062 -0.0184,-0.0106 -0.0372,-0.0217 -0.056,-0.032 -0.0172,-0.009 -0.0348,-0.0186 -0.052,-0.028 -0.006,-0.003 -0.0107,-0.006 -0.016,-0.008 -0.0316,-0.0166 -0.0638,-0.0324 -0.096,-0.048 -0.0374,-0.0184 -0.0756,-0.0365 -0.114,-0.054 -0.0388,-0.0175 -0.076,-0.0334 -0.116,-0.05 -0.2384,-0.0994 -0.49864,-0.18336 -0.778,-0.248 -0.18624,-0.0434 -0.38136,-0.0778 -0.586,-0.104 l -0.124,-0.016 c -0.25192,-0.0275 -0.5176,-0.042 -0.796,-0.042 -1.06848,0 -2.2284,0.33944 -2.904,1.202 -0.67568,0.86248 -0.91632,2.28088 -0.056,4.56 0.59216,1.57056 0.82968,3.06712 1.184,4.14 0.1772,0.53624 0.38224,0.96168 0.656,1.242 0.27344,0.28032 0.60744,0.434 1.12,0.434 z m -7.92,-1.58 c 0.13872,0 0.252,-0.098 0.252,-0.218 0,-0.12 -0.11328,-0.218 -0.252,-0.218 -0.13912,0 -0.252,0.098 -0.252,0.218 0,0.12 0.11288,0.218 0.252,0.218 z m 3.894,-0.234 c -0.28808,0 -0.55344,-0.0771 -0.754,-0.214 -0.20096,-0.13688 -0.344,-0.34232 -0.344,-0.582 0,-0.23968 0.14304,-0.44944 0.344,-0.586 0.20056,-0.13688 0.46592,-0.212 0.754,-0.212 0.28848,0 0.55104,0.0751 0.752,0.212 0.20088,0.13656 0.346,0.34632 0.346,0.586 0,0.23968 -0.14512,0.44512 -0.346,0.582 -0.20096,0.13688 -0.46352,0.214 -0.752,0.214 z m 0.356,-0.276 c 0.16344,0 0.298,-0.10608 0.298,-0.238 0,-0.13184 -0.13456,-0.238 -0.298,-0.238 -0.16376,0 -0.296,0.10616 -0.296,0.238 0,0.13192 0.13224,0.238 0.296,0.238 z m -9.152,-2.936 c 0.2088,-0.0298 0.4548,-0.0945 0.712,-0.192 0.64024,-0.2428 1.09904,-0.60024 1.024,-0.798 -0.075,-0.19816 -0.65536,-0.1608 -1.296,0.082 -0.5456,0.20688 -0.95624,0.49624 -1.02,0.7 0.16904,0.1 0.36472,0.172 0.58,0.208 z m -0.238,-4.372 c 0.13196,-0.12615 0.36485,-0.33441 0.75,-0.548 -0.11823,-0.0718 -0.82279,-0.5416 -0.918,-1.602 -0.52026,0.473 -0.58895,1.53586 0.168,2.15 z m 0.76,-0.554 c 0.0257,-0.0142 0.051,-0.0278 0.078,-0.042 0.3472,-0.18184 0.78416,-0.31256 1.142,-0.406 -0.20912,-0.16344 -0.3732,-0.37392 -0.52,-0.578 l -0.038,0.022 -0.104,-0.164 c -0.075,-0.12128 -0.14768,-0.23752 -0.222,-0.34 -0.005,-0.006 -0.009,-0.0123 -0.014,-0.018 -0.0728,-0.0806 -0.1476,-0.14936 -0.226,-0.2 -0.0785,-0.0506 -0.16104,-0.0885 -0.256,-0.106 -0.0954,-0.0175 -0.20224,-0.0129 -0.336,0.014 -0.16063,0.0322 -0.30301,0.10859 -0.422,0.214 0.0362,0.10887 0.23699,0.69764 0.41,0.928 0.18467,0.24602 0.49019,0.65229 0.508,0.676 z"
       id="path3005-4"
       inkscape:connector-curvature="0" /><path
       inkscape:connector-curvature="0"
       style="fill:#231f20;fill-opacity:1;fill-rule:nonzero;stroke:none"
       d="m 272.15408,230.33145 0.298,-0.008 0.006,0 0.002,0 0.29399,-0.022 0.006,0 0.004,0 0.288,-0.038 0.006,0 0.004,0 0.28,-0.05 0.004,0 0.006,-0.002 0.278,-0.06 0.004,-0.002 0.006,0 0.266,-0.076 0.006,-0.002 0.006,0 0.262,-0.088 0.004,-0.002 0.006,0 0.25401,-0.1 0.006,-0.002 0.002,0 0.248,-0.11 0.004,-0.002 0.006,-0.004 0.23601,-0.122 0.006,-0.002 0.006,-0.002 0.226,-0.13 0.006,-0.004 0.004,-0.004 0.22,-0.14 0.006,-0.002 0.002,-0.006 0.21,-0.15 0.006,-0.004 0.004,-0.004 0.19801,-0.16 0.004,-0.004 0.006,-0.002 0.18801,-0.17 0.004,-0.006 0.002,-0.002 0.12801,-0.13 0.114,-0.01 0.008,0 0.008,-0.002 0.176,-0.03 0.006,-0.004 0.01,-0.002 0.164,-0.044 0.008,-0.004 0.008,-0.002 0.156,-0.058 0.01,-0.002 0.006,-0.004 0.14601,-0.07 0.008,-0.004 0.01,-0.004 0.134,-0.082 0.008,-0.006 0.008,-0.004 0.13003,-0.094 0.008,-0.004 0.004,-0.008 0.122,-0.104 0.008,-0.006 0.006,-0.004 0.114,-0.118 0.006,-0.006 0.004,-0.004 0.11,-0.13 0.006,-0.006 0.002,-0.004 0.104,-0.138 0.006,-0.004 0.002,-0.006 0.1,-0.15 0.006,-0.004 0.002,-0.004 0.098,-0.162 0,-0.002 0.002,-0.006 0.094,-0.17 0.004,-0.004 0,-0.002 0.092,-0.184 0.002,-0.002 0,-0.002 0.092,-0.19 0,-0.002 0,-0.004 0.094,-0.2 0,-0.002 0,-0.002 0.088,-0.21 0,-0.002 0.004,0 0.09,-0.22 0,-0.004 0.092,-0.23 0.094,-0.236 0.098,-0.248 0.1,-0.256 0.106,-0.262 -0.004,0 0.112,-0.27 0.114,-0.278 0.12,-0.282 0,-0.002 0.126,-0.29 0.002,-0.002 0.132,-0.296 0.002,-0.002 0.14,-0.302 0.004,-0.004 0.148,-0.306 0,-0.004 0.164,-0.316 0,-0.004 0.124,-0.252 0.004,-0.004 0,-0.006 0.108,-0.252 0.004,-0.006 0,-0.004 0.094,-0.252 0.002,-0.006 0.004,-0.004 0.08,-0.254 0,-0.004 0.002,-0.006 0.066,-0.25 0.002,-0.004 0,-0.006 0.052,-0.25 0,-0.004 0,-0.006 0.038,-0.246 0,-0.006 0.002,-0.008 0.022,-0.24207 0,-0.008 0,-0.004 0.008,-0.242 0,-0.006 0,-0.004 -0.004,-0.24 0,-0.006 -0.004,-0.004 -0.02,-0.236 0,-0.008 0,-0.004 -0.034,-0.23 0,-0.008 -0.002,-0.004 -0.052,-0.226 0,-0.008 -0.002,-0.004 -0.062,-0.22 -0.002,-0.006 -0.002,-0.006 -0.076,-0.216 -0.002,-0.004 -0.002,-0.008 -0.094,-0.208 -0.002,-0.004 -0.002,-0.008 -0.106,-0.2 -0.002,-0.006 -0.006,-0.006 -0.116,-0.194 -0.006,-0.006 -0.002,-0.006 -0.132,-0.188 -0.006,-0.004 -0.004,-0.006 -0.146,-0.176 -0.004,-0.006 -0.006,-0.004 -0.16,-0.17 -0.004,-0.006 -0.006,-0.004 -0.174,-0.164 -0.006,-0.004 -0.004,-0.002 -0.188,-0.154 -0.004,-0.004 -0.006,-0.002 -0.202,-0.144 -0.006,-0.002 -0.004,-0.004 -0.216,-0.134 -0.006,-0.002 -0.006,-0.002 -0.228,-0.12 -0.006,-0.006 -0.006,-0.002 -0.242,-0.11 -0.006,-0.002 -0.004,0 -0.258,-0.1 -0.004,-0.002 -0.006,0 -0.27,-0.0881 -0.004,-0.002 -0.006,0 -0.282,-0.076 -0.006,0 -0.004,-0.002 -0.298,-0.06 -0.004,0 -0.006,-0.002 -0.06,-0.01 0.092,-0.232 0,-0.006 0.002,-0.004 0.164,-0.484 0.002,-0.004 0,-0.006 0.14,-0.494 0,-0.006 0.002,-0.004 0.116,-0.508 0,-0.004 0,-0.006 0.092,-0.518 0,-0.004 0.002,-0.006 0.068,-0.524 0,-0.006 0,-0.002 0.046,-0.532 0.082,0.11 0.002,0.004 0.002,0.004 0.11,0.17 0.006,0.006 0.104,0.176 0.096,0.168 0.002,0.004 0.084,0.168 0.004,0.004 0.076,0.166 0.004,0.004 0.072,0.164 0.002,0.004 0.066,0.16596 0.002,0 0.058,0.156 0.002,0.006 0.054,0.154 0,0.004 0.052,0.152 0.048,0.15 -0.002,0 0.046,0.148 0.042,0.142 0.038,0.134 0.04,0.134 0.036,0.124 0,0.002 0.038,0.118 0,0.002 0.038,0.11 0.002,0.004 0,0.002 0.04,0.102 0,0.006 0.002,0.002 0.04,0.094 0.004,0.006 0.002,0.004 0.042,0.086 0.004,0.004 0.004,0.008 0.044,0.076 0.006,0.01 0.008,0.006 0.046,0.066 0.008,0.01 0.01,0.01 0.054,0.054 0.008,0.01 0.014,0.01 0.058,0.046 0.012,0.01 0.014,0.008 0.066,0.034 0.014,0.01 0.016,0.006 0.072,0.024 0.014,0.006 0.018,0.002 0.078,0.012 0.016,0.002 0.014,0 0.086,0 0.02,0 0.016,-0.002 0.106,-0.018 0.024,-0.004 0.026,-0.014 0.088,-0.04 0.026,-0.012 0.02,-0.018 0.074,-0.064 0.02,-0.0158 0.014,-0.022 0.058,-0.084 0.012,-0.018 0.008,-0.018 0.044,-0.104 0.006,-0.016 0.004,-0.014 0.03,-0.126 0.004,-0.012 0.002,-0.012 0.014,-0.144 0.004,-0.006 0,-0.01 0.002,-0.16 0,-0.008 0,-0.008 -0.01,-0.174 0,-0.006 0,-0.008 -0.024,-0.186 0,-0.006 -0.002,-0.004 -0.032,-0.204 0,-0.004 -0.002,-0.006 -0.046,-0.212 0,-0.004 -0.002,-0.004 -0.058,-0.226 0,-0.004 0,-0.002 -0.07,-0.238 0,-0.002 0,-0.002 -0.08,-0.246 0,-0.002 0,-0.002 -0.09,-0.252 0,-0.004 -0.002,-0.002 -0.098,-0.26 0,-0.002 -0.002,-0.002 -0.108,-0.266 0,-0.002 -0.002,0 -0.114,-0.27 -0.004,-0.002 0,-0.004 -0.124,-0.272 -0.004,-0.002 0,-0.002 -0.132,-0.276 -0.002,-0.002 0,-0.002 -0.142,-0.276 0,-0.002 -0.004,-0.002 -0.146,-0.278 -0.002,-0.002 -0.156,-0.276 -0.002,-0.002 0,-0.002 -0.162,-0.272 0,-0.004 -0.004,-0.002 -0.168,-0.27 -0.002,-0.002 0,-0.002 -0.174,-0.266 -0.004,-0.002 0,-0.004 -0.18,-0.26 -0.002,-0.002 0,-0.002 -0.184,-0.252 -0.002,-0.004 -0.004,-0.002 -0.19,-0.246 0,-0.004 -0.002,0 -0.196,-0.24 -0.002,-0.002 -0.166,-0.194 -0.056,-0.24 0,-0.004 0,-0.004 -0.076,-0.288 -0.002,-0.002 0,-0.002 -0.082,-0.288 0,-0.004 -0.002,-0.002 -0.034,-0.10211 0.116,-0.056 0.008,-0.002 0.004,-0.004 0.138,-0.076 0.008,-0.002 0.004,-0.004 0.136,-0.086 0.004,-0.006 0.006,-0.002 0.13,-0.098 0.004,-0.002 0.006,-0.004 0.124,-0.10601 0.006,-0.004 0.004,-0.006 0.12,-0.112 0.006,-0.006 0.004,-0.004 0.112,-0.122 0.004,-0.006 0.004,-0.004 0.104,-0.13 0.004,-0.008 0.004,-0.006 0.094,-0.136 0.004,-0.006 0.006,-0.006 0.08,-0.144 0.004,-0.008 0.004,-0.006 0.068,-0.148 0.006,-0.008 0.002,-0.01 0.058,-0.152 0.002,-0.01 0.004,-0.008 0.042,-0.16 0.002,-0.01 0,-0.01 0.028,-0.162 0,-0.01 0.002,-0.01 0.008,-0.164 0,-0.012 0,-0.008 -0.008,-0.18 0,-0.012 -0.002,-0.008 -0.024,-0.16 -0.002,-0.014 -0.002,-0.012 -0.04,-0.14 -0.002,-0.012 -0.006,-0.014 -0.052,-0.122 -0.008,-0.014 -0.008,-0.012 -0.064,-0.106 -0.01,-0.014 -0.01,-0.012 -0.08,-0.088 -0.01,-0.014 -0.012,-0.01 -0.09,-0.076 -0.01,-0.008 -0.014,-0.008 -0.102,-0.064 -0.01,-0.006 -0.012,-0.006 -0.112,-0.052 -0.01,-0.004 -0.01,-0.004 -0.124,-0.04 -0.006,-0.002 -0.01,-0.002 -0.13,-0.032 -0.008,0 -0.008,-0.004 -0.14,-0.022 -0.004,0 -0.006,0 -0.148,-0.018 -0.004,0 -0.004,0 -0.156,-0.008 -0.002,-0.004 -0.002,0 -0.1,-0.002 0.012,-0.148 0,-0.01 0,-0.012 -0.006,-0.096 0,-0.008 0,-0.012 -0.014,-0.094 0,-0.01 -0.004,-0.01 -0.022,-0.092 -0.004,-0.014 -0.002,-0.008 -0.036,-0.092 -0.002,-0.012 -0.006,-0.01 -0.044,-0.086 -0.006,-0.012 -0.006,-0.008 -0.058,-0.084 -0.008,-0.01 -0.008,-0.01 -0.066,-0.076 -0.012,-0.012 -0.008,-0.006 -0.08,-0.07 -0.008,-0.008 -0.01,-0.004 -0.09,-0.06 -0.008,-0.008 -0.01,-0.006 -0.1,-0.052 -0.008,-0.006 -0.01,-0.002 -0.108,-0.044 -0.006,-0.006 -0.008,-0.002 -0.12,-0.038 -0.008,-0.002 -0.006,0 -0.132,-0.032 -0.004,0 -0.008,-0.002 -0.14,-0.024 -0.004,0 -0.006,-0.002 -0.152,-0.014 -0.006,0 -0.004,0 -0.162,-0.012 -0.006,0 -0.002,0 -0.194,-0.004 -0.004,0 -0.004,0 -0.004,0 -0.174,0.002 -0.006,0 -0.002,0 -0.17,0.01 -0.002,0 -0.006,0 -0.16,0.016 -0.004,0 -0.002,0.002 -0.156,0.02 -0.004,0 -0.002,0 -0.148,0.028 -0.006,0 -0.004,0 -0.14,0.032 -0.006,0 -0.004,0 -0.136,0.038 -0.002,0 -0.006,0.002 -0.128,0.04 -0.004,0 -0.004,0.002 -0.124,0.046 -0.004,0.002 -0.004,0 -0.116,0.05 -0.004,0.002 -0.006,0.004 -0.11,0.052 -0.002,0.002 -0.006,0.002 -0.104,0.056 -0.004,0.002 -0.004,0.002 -0.098,0.06 -0.004,0.006 -0.006,0.002 -0.092,0.062 -0.002,0.002 -0.006,0.006 -0.084,0.066 -0.006,0.004 -0.004,0.002 -0.08,0.07 -0.006,0.006 -0.008,0.004 -0.142,0.14599 -0.008,0.008 -0.006,0.008 -0.12,0.154 -0.008,0.006 -0.006,0.012 -0.1,0.154 -0.004,0.01 -0.006,0.01 -0.08,0.16 -0.004,0.008 -0.002,0.01 -0.06,0.16 -0.006,0.01 -0.002,0.01 -0.04,0.16 -0.002,0.008 -0.004,0.008 -0.024,0.156 0,0.01 0,0.012 -0.01,0.148 0,0.012 0,0.01 0.01,0.15 0,0.014 0.002,0.012 0.016,0.082 -0.344,0.026 -0.01,0 -0.556,0.016 -0.01,0 -0.564,-0.01 -0.006,0 -0.35,-0.02 0.014,-0.084 0.002,-0.014 0,-0.012 0.01,-0.136 0,-0.014 0,-0.01 -0.01,-0.152 0,-0.01 -0.002,-0.01 -0.024,-0.158 -0.004,-0.01 -0.002,-0.01 -0.044,-0.16 -0.004,-0.01 -0.004,-0.01 -0.062,-0.162 -0.006,-0.01 -0.004,-0.008 -0.084,-0.162 -0.004,-0.01 -0.008,-0.008 -0.104,-0.16 -0.006,-0.006 -0.008,-0.008 -0.124,-0.156 -0.008,-0.008 -0.008,-0.006 -0.148,-0.148 -0.006,-0.006 -0.006,-0.004 -0.084,-0.07 -0.002,-0.002 -0.006,-0.006 -0.09,-0.066 -0.002,-0.004 -0.004,-0.002 -0.096,-0.066 -0.004,-0.002 -0.004,-0.002 -0.102,-0.06 -0.002,-0.002 -0.006,-0.002 -0.108,-0.058 -0.004,-0.002 -0.002,-0.004 -0.116,-0.054 -0.002,0 -0.006,-0.002 -0.12,-0.052 -0.004,-0.002 -0.002,0 -0.126,-0.046 -0.004,0 -0.006,-0.004 -0.132,-0.04 -0.002,-0.002 -0.006,0 -0.138,-0.038 -0.004,0 -0.006,-0.002 -0.142,-0.03 -0.004,-0.002 -0.006,0 -0.15,-0.026 -0.004,-0.002 -0.004,0 -0.156,-0.02 -0.006,0 -0.002,0 -0.166,-0.018 -0.002,0 -0.004,0 -0.17,-0.008 -0.006,-0.002 -0.002,0 -0.178,-0.002 -0.002,0 -0.002,0 -0.004,0 -0.002,0 -0.194,0.004 -0.004,0 -0.004,0 -0.16,0.008 -0.002,0.004 -0.006,0 -0.148,0.014 -0.006,0 -0.006,0.002 -0.134,0.024 -0.008,0 -0.008,0.002 -0.124,0.026 -0.008,0.004 -0.008,0.002 -0.114,0.034 -0.008,0.004 -0.01,0.002 -0.106,0.046 -0.01,0.002 -0.006,0.004 -0.098,0.05 -0.008,0.006 -0.01,0.004 -0.088,0.06 -0.01,0.006 -0.006,0.008 -0.08,0.064 -0.01,0.01 -0.01,0.01 -0.066,0.072 -0.01,0.01 -0.008,0.01 -0.054,0.08 -0.008,0.01 -0.004,0.014 -0.046,0.084 -0.004,0.01 -0.006,0.01 -0.034,0.09 -0.004,0.01 -0.002,0.01 -0.024,0.092 -0.004,0.01 0,0.01 -0.012,0.094 -0.002,0.008 0,0.012 -0.002,0.092 -0.004,0.012 0.004,0.012 0.014,0.17799 -0.1,0.002 -0.002,0 -0.006,0 -0.156,0.01 -0.004,0 -0.004,0 -0.15,0.016 -0.006,0.002 -0.006,0 -0.144,0.022 -0.006,0 -0.006,0.002 -0.134,0.032 -0.008,0.002 -0.01,0.002 -0.126,0.04 -0.008,0.002 -0.012,0.006 -0.114,0.05 -0.01,0.004 -0.012,0.008 -0.106,0.062 -0.012,0.008 -0.01,0.008 -0.092,0.076 -0.014,0.012 -0.01,0.008 -0.082,0.092 -0.01,0.012 -0.008,0.014 -0.07,0.106 -0.006,0.012 -0.006,0.016 -0.054,0.122 -0.006,0.014 -0.004,0.012 -0.04,0.144 -0.004,0.01 -0.002,0.012 -0.022,0.162 -0.002,0.01 0,0.01 -0.01,0.184 0,0.008 0,0.012 0.01,0.164 0,0.01 0.002,0.01 0.026,0.16199 0.002,0.01 0.002,0.01 0.042,0.16 0.004,0.008 0.002,0.01 0.058,0.152 0.002,0.01 0.002,0.008 0.07,0.148 0.006,0.006 0.002,0.008 0.082,0.144 0.006,0.006 0.004,0.006 0.092,0.136 0.006,0.006 0.002,0.008 0.106,0.13 0.002,0.004 0.004,0.006 0.114,0.122 0.004,0.004 0.006,0.006 0.12,0.112 0.002,0.006 0.004,0.004 0.128,0.106 0.006,0.004 0.004,0.002 0.13,0.098 0.006,0.002 0.004,0.006 0.136,0.086 0.004,0.004 0.008,0.002 0.138,0.076 0.004,0.004 0.006,0.004 0.11985,0.0539 -0.086,0.29 0,0.006 -0.002,0.002 -0.118,0.472 0,0.006 -0.002,0.002 -0.098,0.478 0,0.004 0,0.006 -0.08,0.482 0,0.004 0,0.004 -0.06,0.486 0,0.004 0,0.004 -0.04,0.488 0,0.004 0,0.006 -0.02,0.488 0,0.004 0,0.006 0,0.486 0,0.006 0,0.002 0.02,0.488 0,0.002 0,0.006 0.038,0.482 0,0.004 0.002,0.004 0.058,0.476 0,0.006 0,0.004 0.078,0.47 0,0.006 0,0.002 0.096,0.466 0,0.004 0,0.002 0.116,0.456 0.002,0.002 0,0.006 0.132,0.442 0.004,0.004 0.002,0.006 0.09,0.26 -0.072,0.014 -0.004,0 -0.002,0 -0.322,0.084 -0.006,0.002 -0.002,0 -0.314,0.092 -0.004,0.002 -0.004,0 -0.306,0.106 -0.002,0 -0.004,0.002 -0.296,0.112 -0.004,0.004 -0.004,0.002 -0.286,0.122 -0.004,0.002 -0.004,0.004 -0.276,0.132 -0.004,0.002 -0.002,0.002 -0.1,0.054 -0.016,-0.024 -0.002,0 0,-0.002 -0.058,-0.088 -0.002,-0.002 0,-0.002 -0.06,-0.086 -0.002,-0.002 -0.004,-0.002 -0.062,-0.082 -0.002,-0.004 -0.002,-0.004 -0.066,-0.076 -0.002,-0.004 -0.006,-0.006 -0.066,-0.072 -0.006,-0.004 -0.004,-0.006 -0.074,-0.064 -0.006,-0.006 -0.006,-0.004 -0.078,-0.06 -0.006,-0.006 -0.008,-0.004 -0.082,-0.054 -0.01,-0.004 -0.008,-0.006 -0.09,-0.042 -0.01,-0.004 -0.01,-0.004 -0.092,-0.032 -0.014,-0.004 -0.01,-0.004 -0.102,-0.022 -0.01,-0.002 -0.012,-0.002 -0.108,-0.014 -0.01,0 -0.012,0 -0.116,0 -0.01,0 -0.01,0 -0.124,0.014 -0.01,0 -0.01,0.002 -0.096,0.018 -0.01,0.002 -0.006,0.002 -0.094,0.026 -0.006,0.002 -0.01,0.002 -0.088,0.036 -0.008,0.002 -0.008,0.002 -0.084,0.042 -0.008,0.004 -0.008,0.004 -0.082,0.048 -0.004,0.002 -0.008,0.006 -0.078,0.054 -0.004,0.006 -0.008,0.004 -0.072,0.06 -0.006,0.006 -0.004,0.004 -0.068,0.066 -0.006,0.004 -0.004,0.006 -0.066,0.072 -0.004,0.004 -0.002,0.006 -0.06,0.074 -0.004,0.008 -0.004,0.006 -0.052,0.08 -0.006,0.004 -0.002,0.006 -0.048,0.084 -0.004,0.006 -0.004,0.006 -0.042,0.088 -0.002,0.006 -0.002,0.006 -0.038,0.09 -0.002,0.008 -0.004,0.006 -0.032,0.094 -0.002,0.006 0,0.004 -0.028,0.098 -0.002,0.004 0,0.008 -0.022,0.1 0,0.006 -0.004,0.004 -0.014,0.102 0,0.006 -0.002,0.008 -0.008,0.102 -0.002,0.004 0,0.006 -0.004,0.104 0,0.006 0,0.008 0.004,0.104 0,0.006 0,0.006 0.01,0.106 0,0.004 0.002,0.006 0.014,0.104 0,0.008 0.004,0.006 0.022,0.104 0,0.008 0.002,0.004 0.028,0.106 0.002,0.004 0.002,0.008 0.036,0.102 0.002,0.006 0.002,0.004 0.044,0.104 0.004,0.004 0.002,0.008 0.05,0.1 0.004,0.004 0.002,0.006 0.058,0.098 0.004,0.004 0.002,0.008 0.066,0.092 0.004,0.008 0.004,0.004 0.066,0.086 -0.086,0.168 -0.006,0.006 -0.002,0.008 -0.13,0.302 -0.002,0.008 -0.004,0.008 -0.102,0.314 -0.002,0.008 -0.002,0.01 -0.076,0.322 -0.002,0.008 0,0.008 -0.036,0.22 0,0.008 0,0.004 -0.02,0.22 0,0.006 0,0.006 -0.004,0.216 -0.002,0.004 0.002,0.008 0.008,0.212 0,0.006 0,0.008 0.022,0.206 0,0.008 0.002,0.006 0.034,0.192 -0.002,0.002 -0.004,0.006 -0.004,0.006 -0.07,0.134 -0.002,0.006 -0.004,0.008 -0.054,0.138 -0.002,0.008 -0.002,0.01 -0.038,0.14 -0.002,0.006 -0.002,0.01 -0.02,0.144 0,0.01 0,0.01 -0.002,0.144 -0.004,0.0102 0.004,0.01 0.014,0.148 0.002,0.01 0,0.01 0.036,0.142 0.002,0.01 0.002,0.01 0.054,0.136 0.002,0.01 0.004,0.006 0.066,0.128 0.004,0.01 0.006,0.008 0.082,0.12 0.006,0.006 0.004,0.006 0.098,0.112 0.004,0.006 0.006,0.006 0.11,0.1 0.004,0.008 0.008,0.006 0.12,0.09 0.006,0.004 0.006,0.006 0.13,0.08 0.008,0.004 0.008,0.002 0.14,0.07 0.008,0.004 0.004,0.002 0.15,0.06 0.008,0.002 0.008,0 0.156,0.048 0.006,0.002 0.008,0 0.164,0.032 0.006,0.004 0.006,0 0.04,0.004 0.124,0.116 0.002,0.002 0.002,0.002 0.182,0.16 0.004,0.002 0.002,0.004 0.192,0.154 0.002,0.002 0.004,0.004 0.202,0.15 0.002,0.002 0.002,0.002 0.21,0.148 0.004,0 0.002,0.002 0.22,0.142 0.002,0.004 0.002,0 0.228,0.14 0.002,0 0.004,0.002 0.236,0.134 0.004,0 0.002,0.004 0.242,0.13 0.002,0 0.004,0.002 0.252,0.124 0.002,0 0.002,0.004 0.258,0.12 0.002,0 0.004,0.002 0.266,0.114 0,0.004 0.004,0 0.274,0.11 0.002,0.002 0.28,0.108 0.004,0 0.002,0 0.192,0.066 0.05,0.176 0.002,0.002 0,0.002 0.088,0.268 0,0.002 0.002,0.004 0.094,0.256 0,0.004 0.002,0.002 0.0981,0.25209 0.002,0.002 0,0.004 0.104,0.242 0.004,0.002 0.002,0.006 0.11,0.234 0.002,0.002 0,0.004 0.118,0.23 0.002,0.002 0,0.002 0.126,0.22 0,0.002 0.002,0.006 0.13,0.212 0.002,0.002 0,0.004 0.136,0.204 0.002,0.002 0.002,0.006 0.14,0.194 0.002,0.006 0.004,0.002 0.146,0.188 0.004,0.004 0.002,0.004 0.152,0.18 0.002,0.002 0.004,0.004 0.156,0.17 0.004,0.006 0.004,0.002 0.162,0.162 0.004,0.006 0.004,0.002 0.168,0.156 0.004,0.002 0.004,0.002 0.174,0.148 0.006,0.002 0.002,0.002 0.18,0.138 0.004,0.002 0.004,0.004 0.186,0.13 0.004,0.002 0.004,0.002 0.19,0.12 0.006,0.002 0.004,0.004 0.196,0.112 0.004,0 0.006,0.002 0.202,0.102 0.002,0.004 0.006,0.002 0.206,0.092 0.006,0.002 0.004,0 0.214,0.086 0.004,0 0.006,0.002 0.216,0.072 0.006,0.004 0.004,0.002 0.224,0.062 0.004,0.002 0.006,0 0.23,0.056 0.004,0.002 0.002,0 0.236,0.046 0.004,0 0.006,0.002 0.24,0.034 0.002,0 0.006,0 0.244,0.026 0.006,0 0.002,0 0.252,0.018 0.002,0 0.006,0 0.254,0.004 0.006,0 0.004,0 z m -0.136,-0.402 -0.114,-0.002 -0.008,0 -0.23201,-0.016 -0.01,0 -0.074,-0.008 -0.03,-0.05 -0.048,-0.078 -0.056,-0.092 -0.064,-0.106 -0.072,-0.116 -0.08,-0.128 -0.084,-0.138 -0.09,-0.144 -0.094,-0.154 -0.1,-0.158 -0.102,-0.162 -0.10399,-0.168 -0.106,-0.168 -0.108,-0.172 -0.11001,-0.17 -0.108,-0.168 -0.10799,-0.168 -0.106,-0.164 -0.104,-0.158 -0.102,-0.154 -0.098,-0.146 -0.094,-0.138 -0.088,-0.128 -0.084,-0.118 -0.078,-0.106 -0.07,-0.094 -0.064,-0.078 -0.056,-0.066 -0.046,-0.046 -0.074,-0.068 -0.082,-0.062 -0.086,-0.062 -0.09,-0.056 -0.094,-0.056 -0.098,-0.05 -0.1,-0.05 -0.10201,-0.046 -0.106,-0.044 -0.106,-0.04 -0.106,-0.038 -0.108,-0.036 -0.106,-0.034 -0.10799,-0.03 -0.104,-0.03 -0.104,-0.026 -0.1,-0.024 -0.1,-0.024 -0.094,-0.02 -0.092,-0.018 -0.086,-0.018 -0.082,-0.014 -0.078,-0.014 -0.07,-0.01 -0.002,-0.01 -0.098,-0.036 -0.282,-0.1 -0.004,0 -0.272,-0.102 0,-0.002 -0.27,-0.11 -0.002,0 -0.25799,-0.114 -0.004,-0.002 -0.25,-0.114 0,-0.004 -0.248,-0.122 -0.006,-0.002 -0.23199,-0.122 -0.004,-0.004 -0.228,-0.13 -0.006,-0.002 -0.216,-0.132 -0.006,-0.002 -0.20799,-0.138 -0.004,-0.002 -0.2,-0.14 -0.006,-0.004 -0.19,-0.142 -0.006,-0.004 -0.15,-0.124 0.102,-0.012 0.006,-0.002 0.006,0 0.18001,-0.04 0.008,0 0.004,-0.002 0.17199,-0.05 0.006,-0.004 0.008,-0.002 0.162,-0.064 0.008,-0.004 0.004,-0.002 0.156,-0.074 0.004,-0.004 0.006,-0.002 0.144,-0.088 0.006,-0.002 0.006,-0.004 0.134,-0.096 0.004,-0.004 0.006,-0.004 0.122,-0.104 0.004,-0.006 0.006,-0.004 0.11,-0.112 0.004,-0.006 0.006,-0.008 0.098,-0.12 0.004,-0.004 0.006,-0.008 0.082,-0.124 0.004,-0.008 0.004,-0.008 0.07,-0.132 0.002,-0.008 0.004,-0.008 0.054,-0.134 0.002,-0.01 0.002,-0.008 0.038,-0.14 0.002,-0.01 0.002,-0.01 0.02,-0.142 0,-0.01 0,-0.01 0.004,-0.146 0.002,-0.01 -0.002,-0.01 -0.016,-0.144 -0.002,-0.01 0,-0.01 -0.036,-0.142 -0.002,-0.01 -0.002,-0.01 -0.052,-0.136 -0.004,-0.01 -0.004,-0.01 -0.066,-0.128 -0.004,-0.006 -0.006,-0.008 -0.082,-0.12 -0.004,-0.008 -0.006,-0.008 -0.098,-0.11 -0.004,-0.006 -0.006,-0.006 -0.11,-0.102 -0.004,-0.006 -0.008,-0.004 -0.12,-0.092 -0.004,-0.006 -0.008,-0.002 -0.13,-0.082 -0.008,-0.004 -0.008,-0.002 -0.14,-0.07 -0.006,-0.004 -0.006,-0.004 -0.15,-0.056 -0.008,-0.004 -0.006,-0.002 -0.158,-0.044 -0.006,-0.004 -0.006,0 -0.166,-0.034 -0.004,0 -0.008,-0.002 -0.16999,-0.018 -0.008,-0.002 -0.004,0 -0.178,-0.006 -0.006,0 -0.006,0 -0.178,0.008 -0.008,0 -0.008,0.002 -0.18,0.024 -0.006,0 -0.006,0.002 -0.18,0.038 -0.008,0.002 -0.004,0 -0.172,0.052 -0.006,0.002 -0.008,0.004 -0.162,0.062 -0.008,0.002 -0.004,0.002 -0.156,0.076 -0.004,0.004 -0.006,0.004 -0.144,0.084 -0.006,0.006 -0.006,0.002 -0.134,0.098 -0.004,0.002 -0.006,0.004 -0.096,0.082 -0.002,-0.03 -0.01,-0.196 0,-0.014 0.002,-0.084 0.162,-0.28 0.188,-0.262 0.214,-0.242 0.238,-0.224 0.262,-0.21 0.288,-0.192 0.314,-0.176 0.34,-0.164 0.364,-0.148 0.39,-0.136 0.416,-0.124 0.44,-0.112 0.468,-0.102 0.492,-0.092 0.518,-0.082 0.544,-0.074 0.082,-0.01 0.094,-0.01 0.1,-0.008 0.106,-0.01 0.108,-0.012 0.11,-0.014 0.11,-0.016 0.108,-0.02 0.104,-0.024 0.098,-0.028 0.088,-0.034 0.08,-0.04 0.066,-0.046 0.054,-0.052 0.038,-0.062 0.02,-0.068 0.002,-0.04 -0.006,-0.038 -0.014,-0.038 -0.02,-0.038 -0.03,-0.036 -0.04,-0.038 -0.048,-0.036 -0.058,-0.038 -0.066,-0.038 -0.078,-0.04 -0.09,-0.038 -0.1,-0.042 -0.11,-0.042 -0.122,-0.042 -0.136,-0.046 -0.148,-0.046 -0.25,-0.072 -0.252,-0.062 -0.256,-0.052 -0.256,-0.042 -0.258,-0.032 -0.258,-0.022 -0.258,-0.01 -0.258,0 -0.21999,0.008 0.008,-0.002 0.008,-0.002 0.298,-0.09 0.006,-0.002 0.308,-0.078 0.008,-0.002 0.322,-0.07 0.46996,-0.10206 -0.322,-0.208 0.06,-0.018 0.078,-0.018 0.084,-0.018 0.094,-0.016 0.10199,-0.016 0.11,-0.012 0.116,-0.01 0.124,-0.006 0.132,-0.002 0.134,-0.002 0.12801,-0.002 0.12399,-0.004 0.118,-0.006 0.112,-0.006 0.106,-0.006 0.098,-0.008 0.09,-0.006 0.082,-0.008 0.074,-0.008 0.062,-0.006 0.054,-0.006 0.042,-0.006 0.03,-0.004 0.02,-0.002 0.006,0 -0.004,-0.004 -0.01,-0.012 -0.018,-0.018 -0.022,-0.026 -0.03,-0.032 -0.034,-0.038 -0.038,-0.046 -0.042,-0.054 -0.046,-0.058 -0.05,-0.066 -0.052,-0.072 -0.054,-0.076 -0.056,-0.084 -0.058,-0.09 -0.058,-0.094 -0.058,-0.1 -0.058,-0.106 -0.056,-0.112 -0.056,-0.116 -0.056,-0.12 -0.052,-0.126 -0.048,-0.132 -0.048,-0.134 -0.042,-0.14 -0.038,-0.144 -0.022,-0.102 0.016,0.03 0.01,0.02 0.004,0.006 0,-0.006 0.004,-0.016 0.002,-0.028 0.006,-0.036 0.006,-0.046 0.006,-0.054 0.006,-0.06 0.008,-0.068 0.008,-0.074 0.006,-0.078 0.006,-0.084 0.006,-0.086 0.006,-0.09 0.004,-0.09 0.002,-0.094 0,-0.094 0,-0.09 0,-0.084 -0.002,-0.08 -0.002,-0.08 -0.002,-0.082 -0.002,-0.084 -0.002,-0.092 -0.004,-0.098 -0.004,-0.11 -0.004,-0.124 -0.006,-0.138 -0.006,-0.156 -0.006,-0.176 -0.006,-0.198 -0.006,-0.224 -0.008,-0.25 -0.008,-0.266 -0.008,-0.266 -0.008,-0.266 -0.01,-0.264 -0.008,-0.258 -0.01,-0.252 -0.012,-0.246 -0.01,-0.236 -0.012,-0.224 -0.012,-0.21 -0.012,-0.198 -0.014,-0.18 -0.014,-0.162 -0.014,-0.144 -0.014,-0.126 -0.016,-0.102 -0.032,-0.128 -0.044,-0.132 -0.054,-0.136 -0.064,-0.14 -0.068,-0.14201 -0.074,-0.144 -0.076,-0.14799 -0.076,-0.15 -0.074,-0.148 -0.07,-0.148 -0.064,-0.146 -0.056,-0.142 -0.046,-0.136 -0.034,-0.128 -0.022,-0.11801 -0.006,-0.10799 0.004,-0.056 0.006,-0.052 0.012,-0.048 0.014,-0.042 0.022,-0.04 0.026,-0.038 0.034,-0.034 0.04,-0.036 0.05,-0.032 0.062,-0.032 0.074,-0.03 0.086,-0.028 0.1,-0.022 0.112,-0.018 0.126,-0.014 0.142,-0.008 0.18,-0.004 0.164,0.004 0.156,0.008 0.148,0.014 0.142,0.018 0.134,0.024 0.128,0.026 0.122,0.032 0.114,0.036 0.108,0.04 0.102,0.042 0.096,0.046 0.088,0.048 0.084,0.05 0.078,0.054 0.074,0.054 0.066,0.056 0.12,0.118 0.1,0.122 0.082,0.124 0.064,0.124 0.05,0.124 0.032,0.11799 0.02,0.11401 0.006,0.108 -0.004,0.092 -0.016,0.078 -0.016,0.084 -0.018,0.104 -0.016,0.12 -0.014,0.13999 -0.016,0.15401 -0.014,0.17 -0.014,0.186 -0.014,0.198 -0.022,0.3 -0.02,0.292 -0.02,0.282 -0.018,0.27 -0.018,0.26 -0.016,0.25 -0.016,0.236 -0.014,0.224 -0.014,0.212 -0.01,0.198 -0.01,0.184 -0.01,0.17 -0.006,0.154 -0.006,0.138 -0.002,0.122 -0.002,0.106 0.002,0.094 0.006,0.094 0.008,0.09 0.008,0.086 0.012,0.084 0.014,0.076 0.014,0.074 0.014,0.066 0.014,0.062 0.014,0.054 0.014,0.048 0.012,0.04 0.01,0.032 0.008,0.024 0.004,0.014 0.002,0.004 0.002,-0.004 0.008,-0.016 0.012,-0.026 0.016,-0.032 0.018,-0.042 0.022,-0.05 0.022,-0.056 0.022,-0.062 0.022,-0.068 0.024,-0.072 0.02,-0.078 0.018,-0.08 0.016,-0.084 0.012,-0.084 0.008,-0.088 0.002,-0.088 0,-0.08 0.002,-0.068 0.002,-0.06 0.004,-0.052 0.004,-0.05 0.004,-0.048 0.006,-0.054 0.006,-0.058 0.006,-0.068 0.008,-0.082 0.008,-0.096 0.01,-0.116 0.008,-0.138 0.01,-0.162 0.012,-0.192 0.01,-0.224 0.012,-0.24 0.012,-0.24 0.012,-0.24 0.012,-0.236 0.014,-0.23 0.014,-0.224 0.012,-0.218 0.014,-0.206 0.014,-0.196 0.014,-0.18204 0.016,-0.168 0.014,-0.152 0.002,-0.012 0.01,0 0.582,0.034 0.006,0 0.002,0 0.58,0.01 0.004,0 0.006,0 0.574,-0.016 0.006,0 0.006,0 0.572,-0.04 0.008,0 0.004,0.024 0.014,0.152 0.014,0.168 0.014,0.182 0.014,0.196 0.022,0.314 0.02,0.334 0.018,0.348 0.02,0.358 0.018,0.36 0.016,0.36 0.016,0.35 0.014,0.338 0.002,0.076 0.004,0.066 0.002,0.056 0.002,0.048 0,0.012 -0.002,-0.008 0,-0.006 -0.002,-0.002 -0.002,0.006 0,0.012 0,0.018 -0.002,0.024 0,0.032 0,0.04 0,0.05 0.002,0.106 0.008,0.106 0.014,0.102 0.016,0.102 0.02,0.096 0.02,0.092 0.024,0.088 0.024,0.082 0.024,0.074 0.024,0.068 0.02,0.058 0.02,0.05 0.016,0.04 0.014,0.03 0.008,0.02 0.002,0.006 0.002,-0.006 0.004,-0.016 0.008,-0.026 0.008,-0.034 0.012,-0.042 0.012,-0.052 0.012,-0.058 0.014,-0.066 0.014,-0.07 0.012,-0.076 0.012,-0.082 0.012,-0.086 0.008,-0.09 0.008,-0.092 0.004,-0.094 0.002,-0.096 0,-0.09 0,-0.072 0,-0.06 0.002,-0.052 0,-0.048 0,-0.044 0,-0.048 -0.002,-0.052 -0.002,-0.062 -0.002,-0.074 -0.002,-0.09 -0.006,-0.11 -0.006,-0.132 -0.006,-0.158 -0.01,-0.19 -0.01,-0.222 -0.012,-0.24 -0.01,-0.24201 -0.014,-0.24 -0.012,-0.236 -0.014,-0.234 -0.012,-0.226 -0.014,-0.218 -0.014,-0.208 -0.014,-0.198 -0.016,-0.18599 -0.014,-0.17001 -0.014,-0.154 -0.016,-0.138 -0.016,-0.12199 -0.016,-0.10201 -0.018,-0.084 -0.016,-0.092 -0.006,-0.104 0.006,-0.108 0.018,-0.114 0.032,-0.12 0.046,-0.12 0.06,-0.12399 0.078,-0.12201 0.094,-0.11799 0.114,-0.11401 0.064,-0.056 0.068,-0.054 0.076,-0.05 0.08,-0.05 0.086,-0.048 0.092,-0.044 0.098,-0.042 0.104,-0.038 0.112,-0.034 0.118,-0.032 0.124,-0.026 0.132,-0.022 0.138,-0.02 0.146,-0.012 0.154,-0.008 0.162,-0.004 0.18,0.004 0.144,0.008 0.13,0.014 0.116,0.02 0.102,0.024 0.088,0.028 0.076,0.03 0.062,0.034 0.052,0.036 0.042,0.036 0.034,0.038 0.028,0.04 0.022,0.042 0.016,0.046 0.012,0.052 0.008,0.054 0.002,0.062 -0.006,0.108 -0.02,0.118 -0.032,0.128 -0.042,0.134 -0.052,0.14 -0.06,0.144 -0.066,0.14601 -0.068,0.14599 -0.072,0.146 -0.07,0.144 -0.068,0.142 -0.066,0.14 -0.058,0.136 -0.052,0.134 -0.042,0.128 -0.03,0.126 -0.016,0.102 -0.016,0.126 -0.014,0.144 -0.014,0.162 -0.012,0.18 -0.012,0.198 -0.012,0.21 -0.012,0.224 -0.016,0.34 -0.016,0.326 -0.014,0.314 -0.014,0.3 -0.012,0.288 -0.01,0.272 -0.01,0.258 -0.01,0.242 -0.008,0.226 -0.006,0.212 -0.006,0.194 -0.004,0.176 -0.004,0.16 -0.004,0.142 0,0.122 -0.002,0.106 0.002,0.126 0.008,0.118 0.01,0.112 0.012,0.104 0.016,0.098 0.016,0.09 0.018,0.082 0.018,0.074 0.02,0.066 0.018,0.058 0.016,0.048 0.016,0.042 0.012,0.032 0.01,0.022 0.006,0.014 0.002,0.006 0.002,-0.006 0.006,-0.016 0.01,-0.028 0.014,-0.038 0.014,-0.046 0.018,-0.054 0.014,-0.052 -0.002,0.146 -0.014,0.214 -0.022,0.204 -0.028,0.19 -0.038,0.18 -0.044,0.17 -0.05,0.158 -0.056,0.15 -0.064,0.138 -0.068,0.128 -0.072,0.12 -0.078,0.11 -0.082,0.102 -0.086,0.092 -0.088,0.086 -0.092,0.076 -0.094,0.07 -0.096,0.06 -0.098,0.056 -0.098,0.046 -0.1,0.042 -0.1,0.034 -0.1,0.03 -0.1,0.022 -0.098,0.018 -0.098,0.014 -0.094,0.006 -0.094,0.004 -0.09,0 -0.088,-0.006 -0.086,-0.008 -0.08,-0.012 -0.17,-0.026 -0.168,-0.018 -0.164,-0.01 -0.16,-0.002 -0.154,0.006 -0.152,0.014 -0.146,0.02 -0.14,0.026 -0.136,0.034 -0.132,0.04 -0.124,0.048 -0.12,0.052 -0.114,0.058 -0.106,0.064 -0.1,0.07 -0.094,0.074 -0.086,0.078 -0.08,0.084 -0.072,0.09 -0.064,0.092 -0.056,0.096 -0.046,0.102 -0.04,0.104 -0.03,0.108 -0.022,0.11 -0.014,0.114 -0.002,0.116 0.006,0.12 0.016,0.12 0.026,0.124 0.038,0.124 0.046,0.128 0.1,0.25 0.094,0.242 0.084,0.234 0.078,0.224 0.068,0.218 0.064,0.21 0.054,0.202 0.048,0.196 0.042,0.188 0.036,0.182 0.028,0.174 0.024,0.168 0.016,0.162 0.012,0.154 0.006,0.15 0,0.144 -0.004,0.138 -0.008,0.132 -0.014,0.128 -0.018,0.122 -0.022,0.118 -0.026,0.114 -0.03,0.108 -0.032,0.104 -0.038,0.1 -0.038,0.096 -0.044,0.094 -0.044,0.088 -0.048,0.086 -0.05,0.084 -0.052,0.08 -0.054,0.076 -0.056,0.076 -0.058,0.072 -0.058,0.07 -0.06,0.068 -0.06,0.068 -0.062,0.064 -0.06,0.064 -0.062,0.062 -0.062,0.062 -0.06,0.06 -0.062,0.06 -0.06,0.06 -0.06,0.058 -0.058,0.06 -0.058,0.058 -0.056,0.06 -0.054,0.06 -0.052,0.062 -0.05,0.062 -0.048,0.062 -0.046,0.064 -0.0422,0.0657 -0.04,0.068 -0.036,0.068 -0.034,0.072 -0.03,0.074 -0.026,0.076 -0.022,0.078 -0.018,0.08 -0.014,0.086 -0.01,0.086 -0.004,0.092 0.006,0.132 0.018,0.146 0.03,0.158 0.044,0.17 0.054,0.178 0.064,0.186 0.074,0.194 0.082,0.2 0.09,0.206 0.096,0.208 0.1,0.212 0.106,0.214 0.11,0.214 0.114,0.214 0.114,0.212 0.116,0.208 0.114,0.206 0.116,0.2 0.112,0.192 0.11,0.188 0.108,0.178 0.102,0.168 0.096,0.158 0.092,0.146 0.082,0.132 0.076,0.12 0.066,0.102 0.032,0.05 z m -9.558,-11.348 -0.048,-0.07 -0.008,-0.012 -0.042,-0.072 -0.008,-0.014 -0.036,-0.074 -0.006,-0.012 -0.038,-0.09 -0.002,0 -0.024,-0.078 -0.006,-0.012 -0.022,-0.08 -0.002,-0.014 -0.018,-0.08 -0.002,-0.012 -0.014,-0.092 -0.006,-0.082 0,-0.01 -0.004,-0.084 0,-0.01 0.004,-0.082 0,-0.01 0.006,-0.08 0.004,-0.012 0.01,-0.078 0.002,0 0.018,-0.088 0.002,-0.012 0.02,-0.072 0.004,-0.012 0.026,-0.074 0.002,-0.01 0.03,-0.07 0.006,-0.01 0.032,-0.064 0.04,-0.072 0.008,-0.014 0.036,-0.056 0.05,-0.066 0.01,-0.01 0.044,-0.05 0.01,-0.01 0.046,-0.044 0.01,-0.01 0.048,-0.04 0.012,-0.01 0.05,-0.036 0.016,-0.01 0.052,-0.03 0.016,-0.008 0.07,-0.032 0.054,-0.022 0.016,-0.006 0.002,0 0.074,-0.02 0.064,-0.012 0.016,-0.002 0.088,-0.008 0.118,0 0.064,0.008 0.096,0.022 0.004,0 0.05,0.018 0.018,0.008 0.006,0.002 0.046,0.022 0.004,0.002 0.08,0.05 0.06,0.048 0.05,0.046 0.006,0.006 0.004,0.004 0.05,0.052 0.006,0.008 0.05,0.06 0.006,0.006 0.052,0.068 0.006,0.008 0.05,0.072 0.004,0.006 0.052,0.08 0.004,0.002 0.032,0.052 -0.2,0.096 -0.208,0.116 -0.198,0.128 -0.188,0.142 -0.18,0.154 -0.166,0.166 -0.156,0.18 -0.144,0.194 -0.132,0.206 -0.058,0.108 z m 17.412,-2.29 -0.06,0 -0.042,-0.006 -0.048,-0.016 -0.03,-0.018 -0.026,-0.018 -0.002,-0.002 -0.034,-0.034 -0.04,-0.05 -0.01,-0.016 -0.028,-0.044 -0.008,-0.016 -0.03,-0.06 -0.004,-0.01 -0.032,-0.074 -0.004,-0.008 -0.032,-0.088 -0.002,-0.004 -0.036,-0.1 0,-0.004 -0.034,-0.11 0,-0.002 -0.038,-0.12 0,-0.002 -0.038,-0.128 -0.04,-0.138 -0.032,-0.11 0.026,-0.022 0.072,-0.062 0.08,-0.074 0.084,-0.082 0.086,-0.09 0.086,-0.098 0.08,-0.102 0.076,-0.106 0.02,-0.036 0.04,0.126 0,0.004 0.002,0 0.064,0.226 0.002,0.004 0.052,0.214 0.002,0.006 0.044,0.198 0.002,0.01 0.03,0.18201 0.002,0.01 0.02,0.18 0.008,0.148 0,0.01 0,0.006 -0.002,0.124 -0.016,0.132 0,0.01 -0.022,0.086 -0.03,0.068 -0.032,0.046 -0.036,0.034 -0.036,0.016 -0.054,0.01 z m -2.496,-7.986 0.096,-0.074 0.12601,-0.1 0.11999,-0.094 0.114,-0.094 0.106,-0.094 0.044,-0.042 -0.092,0.102 -0.008,0.008 -0.002,0.002 -0.1,0.094 -0.01,0.012 -0.108,0.086 -0.01,0.008 -0.11001,0.082 -0.01,0.008 -0.11199,0.072 -0.008,0.006 -0.006,0.002 -0.03,0.016 z"
       id="path3210-8" /></g></svg>